<svg width="16" height="15" viewBox="0 0 16 15" fill="none" xmlns="http://www.w3.org/2000/svg">
<path d="M15.8029 12.2575L11.4921 11.2859C11.2992 11.2423 11.0993 11.2408 10.9059 11.2815C10.7124 11.3222 10.53 11.4041 10.3711 11.5217L9.82085 11.9277C9.62876 12.0698 9.47692 12.2594 9.38025 12.4779L9.34645 12.5538C9.2707 12.7252 9.14679 12.8708 8.98979 12.9731C8.8328 13.0754 8.64947 13.1298 8.46211 13.1298C8.27474 13.1298 8.09142 13.0754 7.93442 12.9731C7.77742 12.8708 7.65351 12.7252 7.57776 12.5538L7.54396 12.4779C7.44721 12.2595 7.29539 12.0699 7.10336 11.9277L6.55311 11.5221C6.39418 11.4045 6.21178 11.3226 6.01835 11.2819C5.82491 11.2412 5.62497 11.2427 5.43216 11.2862L1.12286 12.2575C1.07736 12.2677 1.0367 12.2931 1.00761 12.3295C0.978522 12.366 0.962746 12.4113 0.962892 12.4579V14.7945C0.962892 14.8489 0.984507 14.9011 1.02298 14.9396C1.06146 14.9781 1.11365 14.9997 1.16806 14.9997H15.7577C15.7847 14.9997 15.8114 14.9945 15.8363 14.9842C15.8612 14.9739 15.8839 14.9588 15.9029 14.9397C15.922 14.9207 15.9371 14.898 15.9474 14.8731C15.9577 14.8482 15.9629 14.8215 15.9629 14.7945V12.4579C15.963 12.4113 15.9473 12.366 15.9182 12.3295C15.8891 12.2931 15.8484 12.2677 15.8029 12.2575ZM15.5526 14.5894H1.37323V12.6222L5.52452 11.6856C5.65972 11.6551 5.7999 11.6541 5.93553 11.6825C6.07116 11.711 6.19908 11.7684 6.3106 11.8507L6.86086 12.2567C6.99548 12.3561 7.10205 12.4886 7.17018 12.6415L7.20398 12.7173C7.31188 12.9608 7.48817 13.1678 7.71143 13.3131C7.9347 13.4584 8.19534 13.5357 8.46171 13.5357C8.72808 13.5357 8.98873 13.4584 9.21199 13.3131C9.43526 13.1678 9.61154 12.9608 9.71944 12.7173L9.75324 12.6415C9.82129 12.4885 9.92787 12.3557 10.0626 12.2563L10.6128 11.8503C10.7244 11.768 10.8523 11.7107 10.9879 11.6822C11.1235 11.6537 11.2637 11.6547 11.3989 11.6852L15.553 12.6222L15.5526 14.5894Z" fill="#737678"/>
<path d="M7.78369 10.6798C7.99403 10.6798 8.16454 10.5093 8.16454 10.2989C8.16454 10.0886 7.99403 9.91809 7.78369 9.91809C7.57335 9.91809 7.40283 10.0886 7.40283 10.2989C7.40283 10.5093 7.57335 10.6798 7.78369 10.6798Z" fill="#737678"/>
<path d="M9.03344 11.2949C9.24379 11.2949 9.4143 11.1244 9.4143 10.9141C9.4143 10.7037 9.24379 10.5332 9.03344 10.5332C8.8231 10.5332 8.65259 10.7037 8.65259 10.9141C8.65259 11.1244 8.8231 11.2949 9.03344 11.2949Z" fill="#737678"/>
<path d="M8.40747 11.6039C8.33214 11.6039 8.25851 11.6262 8.19588 11.6681C8.13324 11.7099 8.08443 11.7694 8.0556 11.839C8.02678 11.9086 8.01923 11.9852 8.03393 12.059C8.04862 12.1329 8.0849 12.2008 8.13816 12.254C8.19143 12.3073 8.25929 12.3436 8.33317 12.3583C8.40704 12.373 8.48362 12.3654 8.55322 12.3366C8.62281 12.3078 8.68229 12.259 8.72414 12.1963C8.76599 12.1337 8.78832 12.0601 8.78832 11.9847C8.78832 11.8837 8.7482 11.7869 8.67677 11.7154C8.60535 11.644 8.50848 11.6039 8.40747 11.6039Z" fill="#737678"/>
<path d="M8.7269 7.01469V7.75833C8.7269 7.81274 8.74852 7.86493 8.787 7.9034C8.82547 7.94188 8.87766 7.96349 8.93207 7.96349C8.98648 7.96349 9.03867 7.94188 9.07715 7.9034C9.11562 7.86493 9.13724 7.81274 9.13724 7.75833V7.01469L9.73505 6.41688C9.97094 6.1805 10.1034 5.86019 10.1034 5.52625C10.1034 5.19231 9.97094 4.872 9.73505 4.63562L9.07671 3.97728C9.03752 3.94021 8.98562 3.91956 8.93168 3.91956C8.87773 3.91956 8.82584 3.94021 8.78664 3.97728L8.12869 4.63523C7.89291 4.87166 7.7605 5.19195 7.7605 5.52586C7.7605 5.85977 7.89291 6.18005 8.12869 6.41649L8.7269 7.01469ZM8.41915 4.92568L8.9301 4.41473L9.44106 4.92568C9.60007 5.08519 9.68935 5.30122 9.68935 5.52645C9.68935 5.75167 9.60007 5.96771 9.44106 6.12721L9.13331 6.43496V5.34506C9.13331 5.29065 9.11169 5.23846 9.07321 5.19998C9.03474 5.16151 8.98255 5.13989 8.92814 5.13989C8.87373 5.13989 8.82154 5.16151 8.78306 5.19998C8.74459 5.23846 8.72297 5.29065 8.72297 5.34506V6.43496L8.41522 6.12721C8.25664 5.96724 8.16799 5.75089 8.16873 5.52563C8.16946 5.30038 8.25953 5.08462 8.41915 4.92568Z" fill="#737678"/>
<path d="M3.09432 6.99196L3.48108 7.21285C3.70156 7.33919 3.88433 7.52209 4.0105 7.74267C4.17356 8.02755 4.40981 8.26366 4.69478 8.42656C4.91756 8.5536 5.10205 8.73823 5.22893 8.96109V8.96385C5.39183 9.2478 5.6275 9.48319 5.91164 9.64577C6.0221 9.70886 6.12362 9.78645 6.21349 9.87649C6.25114 9.91415 6.30196 9.9357 6.35521 9.93658C6.40846 9.93746 6.45997 9.9176 6.49884 9.8812C6.99952 9.41154 7.65891 9.148 8.34538 9.14319C9.03184 9.13838 9.69486 9.39266 10.2021 9.85526C10.2388 9.88883 10.2865 9.90787 10.3363 9.90881C10.3861 9.90975 10.4345 9.89253 10.4725 9.86037C11.619 8.89344 12.6533 7.80074 13.5559 6.60285L13.9544 6.07303L14.8144 5.21306C14.8368 5.19079 14.8537 5.16366 14.8638 5.13378C14.874 5.1039 14.8771 5.07208 14.8729 5.0408C14.8687 5.00953 14.8573 4.97964 14.8397 4.95348C14.822 4.92732 14.7986 4.90558 14.7712 4.88998L14.3836 4.66831C14.1622 4.54146 13.9788 4.35772 13.8522 4.13613C13.6897 3.8525 13.4546 3.61726 13.1711 3.4546L13.1683 3.45224C12.9468 3.32566 12.7631 3.14204 12.6366 2.92045C12.4729 2.63522 12.2358 2.39907 11.9499 2.23656C11.7288 2.10995 11.5456 1.92647 11.4193 1.70517C11.2565 1.42026 11.0203 1.18413 10.7354 1.02128C10.5141 0.894715 10.3306 0.711244 10.204 0.489891L9.98472 0.103139C9.96906 0.0757751 9.9473 0.0523881 9.92114 0.0347941C9.89498 0.0172002 9.86511 0.00587253 9.83386 0.00169069C9.80261 -0.00249115 9.77082 0.00058532 9.74095 0.0106812C9.71108 0.0207772 9.68394 0.0376209 9.66164 0.0599048L8.80009 0.919878L8.27145 1.31724C6.77103 2.44575 5.43694 3.77985 4.30843 5.28027L3.91145 5.80852L3.05148 6.66849C3.0292 6.69079 3.01235 6.71793 3.00226 6.7478C2.99216 6.77767 2.98909 6.80946 2.99327 6.84071C2.99745 6.87196 3.00878 6.90183 3.02637 6.92799C3.04397 6.95415 3.06735 6.97591 3.09472 6.99157L3.09432 6.99196ZM9.76029 0.539807L11.7475 2.59384C11.969 2.72045 12.1524 2.90408 12.2789 3.12562C12.4409 3.4091 12.6755 3.64433 12.9585 3.80715L12.9628 3.80991C13.1844 3.93657 13.3681 4.12034 13.4946 4.34208C13.6575 4.62669 13.8935 4.86265 14.1781 5.02558L14.3329 5.11401L9.76029 0.539807ZM4.63622 5.5271C5.74162 4.05729 7.04847 2.75044 8.51828 1.64504L8.91565 1.34633L13.5268 5.95748L13.2281 6.35484C12.3795 7.48169 11.4117 8.51364 10.3416 9.43274C9.92494 9.095 9.42871 8.86962 8.90022 8.77811C8.37173 8.6866 7.82861 8.73201 7.32265 8.91L4.3383 5.92486L4.63622 5.5271ZM3.68467 6.85675L3.53099 6.76911L3.68467 6.85675Z" fill="#737678"/>
</svg>
