<svg width="42" height="42" viewBox="0 0 42 42" fill="none" xmlns="http://www.w3.org/2000/svg">
<path d="M15.176 14.5938H10.2V20.5408H15.176V14.5938Z" fill="#37474F"/>
<path d="M14.676 15.0938H10.7V20.0408H14.676V15.0938Z" stroke="#37474F"/>
<path d="M22.5788 14.5938H17.6028V20.5408H22.5788V14.5938Z" fill="#37474F"/>
<path d="M22.0788 15.0938H18.1028V20.0408H22.0788V15.0938Z" stroke="#37474F"/>
<path d="M15.176 23.6973H10.2V29.7663H15.176V23.6973Z" fill="#37474F"/>
<path d="M14.676 24.1973H10.7V29.2663H14.676V24.1973Z" stroke="#37474F"/>
<path d="M22.5788 23.6973H17.6028V29.7663H22.5788V23.6973Z" fill="#37474F"/>
<path d="M22.0788 24.1973H18.1028V29.2663H22.0788V24.1973Z" stroke="#37474F"/>
<path d="M2.33984 1L1 6.25299H31.0549L29.9668 1H2.33984Z" stroke="#37474F"/>
<path d="M29.1919 21.5947L40.5989 24.9437V25.9437L29.1919 23.0137V21.5947Z" stroke="#37474F" stroke-width="0.8"/>
<path d="M40.2649 39.129H2.42688V40.492H40.2649V39.129Z" stroke="#37474F" stroke-width="0.8"/>
<path d="M37.215 29.7661H32.584V37.6551H37.215V29.7661Z" fill="#37474F"/>
<path d="M36.715 30.2661H33.084V37.1551H36.715V30.2661Z" stroke="#37474F"/>
<path d="M39.7268 25.9482V38.7292" stroke="#37474F" stroke-width="0.8"/>
<path d="M29.134 6.25391V38.6959" stroke="#37474F"/>
<path d="M3.64502 6.81104V39.2531" stroke="#37474F"/>
</svg>
