<svg width="8" height="14" viewBox="0 0 8 14" fill="none" xmlns="http://www.w3.org/2000/svg">
<path d="M2.59989 7.71079C2.50616 7.61783 2.43177 7.50723 2.381 7.38537C2.33023 7.26351 2.30409 7.13281 2.30409 7.00079C2.30409 6.86878 2.33023 6.73808 2.381 6.61622C2.43177 6.49436 2.50616 6.38376 2.59989 6.29079L7.18989 1.71079C7.28362 1.61783 7.35801 1.50723 7.40878 1.38537C7.45955 1.26351 7.48569 1.1328 7.48569 1.00079C7.48569 0.868781 7.45955 0.738075 7.40878 0.616216C7.35801 0.494357 7.28362 0.383756 7.18989 0.290792C7.00253 0.104542 6.74908 0 6.48489 0C6.22071 0 5.96725 0.104542 5.77989 0.290792L1.18989 4.88079C0.628088 5.44329 0.312531 6.20579 0.312531 7.00079C0.312531 7.7958 0.628088 8.55829 1.18989 9.12079L5.77989 13.7108C5.96615 13.8955 6.21755 13.9997 6.47989 14.0008C6.6115 14.0016 6.74196 13.9763 6.8638 13.9266C6.98564 13.8768 7.09645 13.8035 7.18989 13.7108C7.28362 13.6178 7.35801 13.5072 7.40878 13.3854C7.45955 13.2635 7.48569 13.1328 7.48569 13.0008C7.48569 12.8688 7.45955 12.7381 7.40878 12.6162C7.35801 12.4944 7.28362 12.3838 7.18989 12.2908L2.59989 7.71079Z" fill="#E85451"/>
</svg>
