<svg width="42" height="42" viewBox="0 0 42 42" fill="none" xmlns="http://www.w3.org/2000/svg">
<path d="M40.4141 39.8281H38.495V31.7744C38.8785 31.4372 39.1213 30.9435 39.1213 30.3939C39.1213 29.3802 38.2965 28.5555 37.2828 28.5555H33.4495L32.8575 19.0847C32.8382 18.7759 32.5821 18.5353 32.2727 18.5353H29.7677C29.4583 18.5353 29.2022 18.7759 29.1829 19.0847L28.5909 28.5555H27.1868L26.5948 19.0847C26.5755 18.7759 26.3195 18.5353 26.0101 18.5353H23.5051C23.1957 18.5353 22.9396 18.7759 22.9203 19.0847L22.3284 28.5555H20.9242L20.3323 19.0847C20.313 18.7759 20.0569 18.5353 19.7475 18.5353H17.2425C16.9331 18.5353 16.677 18.7759 16.6577 19.0847L16.0658 28.5555H14.4338L14.0708 12.2194C14.0638 11.9009 13.8035 11.6465 13.485 11.6465H9.72742C9.40891 11.6465 9.14867 11.9009 9.14164 12.2194L8.72297 31.0605H4.09094C3.07719 31.0605 2.2525 31.8853 2.2525 32.899C2.2525 33.4486 2.49523 33.9423 2.87875 34.2795V39.8281H1.58594C1.26234 39.8281 1 40.0905 1 40.4141C1 40.7377 1.26234 41 1.58594 41H40.4141C40.7377 41 41 40.7377 41 40.4141C41 40.0905 40.7377 39.8281 40.4141 39.8281ZM8.66711 33.5656H6.59625C6.27266 33.5656 6.01031 33.828 6.01031 34.1516C6.01031 34.4752 6.27266 34.7375 6.59625 34.7375H8.64109L8.52797 39.8281H4.05063V34.7364C4.06406 34.7367 4.07742 34.7374 4.09094 34.7374C4.41453 34.7374 4.67687 34.4751 4.67687 34.1515C4.67687 33.8279 4.41453 33.5655 4.09094 33.5655C3.72336 33.5655 3.42438 33.2665 3.42438 32.899C3.42438 32.5314 3.72344 32.2324 4.09094 32.2324H8.69672L8.66711 33.5656ZM30.318 19.7072H31.7222L32.2752 28.5555H29.7651L30.318 19.7072ZM24.0555 19.7072H25.4596L26.0127 28.5555H23.5025L24.0555 19.7072ZM17.7929 19.7072H19.197L19.75 28.5555H17.2398L17.7929 19.7072ZM11.0202 39.8281H9.70023L10.3003 12.8183H12.9118L13.2616 28.5555H12.2324C11.2187 28.5555 10.3939 29.3802 10.3939 30.3939C10.3939 30.9435 10.6366 31.4372 11.0202 31.7744V39.8281ZM37.2828 31.0605H36.0303C35.7067 31.0605 35.4444 31.3228 35.4444 31.6464C35.4444 31.97 35.7067 32.2323 36.0303 32.2323H37.2828C37.2963 32.2323 37.3097 32.2316 37.3231 32.2313V39.8281H12.192V32.2313C12.2055 32.2316 12.2188 32.2323 12.2323 32.2323H33.5257C33.8493 32.2323 34.1116 31.97 34.1116 31.6464C34.1116 31.3228 33.8493 31.0605 33.5257 31.0605H12.2323C11.8648 31.0605 11.5657 30.7614 11.5657 30.3939C11.5657 30.0264 11.8648 29.7273 12.2323 29.7273H37.2827C37.6503 29.7273 37.9494 30.0263 37.9494 30.3939C37.9494 30.7615 37.6503 31.0605 37.2828 31.0605Z" fill="#37474F"/>
<path d="M33.5252 1C31.76 1 30.0772 1.61602 28.732 2.74484C27.7662 2.02016 26.5958 1.62625 25.3838 1.62625C23.9125 1.62625 22.508 2.20711 21.464 3.23406C20.9229 3.0007 20.3375 2.87875 19.7475 2.87875C18.0054 2.87875 16.4525 3.9218 15.771 5.48281C15.5358 5.41695 15.295 5.38375 15.0505 5.38375C13.8401 5.38375 12.7993 6.17086 12.4275 7.27344C12.3627 7.26625 12.2975 7.26258 12.2323 7.26258C11.2186 7.26258 10.3938 8.08734 10.3938 9.10102C10.3939 9.42469 10.6562 9.68703 10.9798 9.68703C11.3034 9.68703 11.5658 9.42469 11.5658 9.10109C11.5658 8.73352 11.8648 8.43453 12.2324 8.43453C12.3486 8.43453 12.4626 8.46742 12.5711 8.53234C12.7467 8.63742 12.9643 8.6432 13.1454 8.54781C13.3263 8.45234 13.4444 8.26937 13.4568 8.06508C13.5081 7.21875 14.2082 6.55578 15.0504 6.55578C15.3168 6.55578 15.5797 6.62773 15.8317 6.76969C15.9896 6.85867 16.18 6.86945 16.3471 6.79891C16.5142 6.72836 16.6391 6.58445 16.6856 6.40914C17.0535 5.02055 18.3125 4.0507 19.7474 4.0507C20.2911 4.0507 20.8298 4.19289 21.3051 4.4618C21.5481 4.5993 21.8546 4.54625 22.0371 4.33484C22.8805 3.35828 24.1004 2.7982 25.3837 2.7982C26.481 2.7982 27.536 3.20781 28.3543 3.95148C28.5826 4.15898 28.9328 4.15391 29.155 3.93977C30.3378 2.79969 31.8898 2.17188 33.5252 2.17188C37.0007 2.17188 39.8281 4.99938 39.8281 8.47477C39.8281 11.9502 37.0007 14.7777 33.5252 14.7777C31.2178 14.7777 29.0966 13.5178 27.9895 11.4898C27.8418 11.2193 27.5099 11.1095 27.23 11.2384C26.6424 11.5091 26.0212 11.6463 25.3838 11.6463C24.1004 11.6463 22.8806 11.0862 22.0372 10.1097C21.8547 9.89836 21.5483 9.84523 21.3052 9.98273C20.8299 10.2516 20.2912 10.3938 19.7475 10.3938C18.7573 10.3938 17.8411 9.94047 17.2338 9.15C17.1235 9.00648 16.9531 8.92195 16.7721 8.92102C16.7711 8.92102 16.7701 8.92102 16.7692 8.92102C16.5893 8.92102 16.4192 9.00375 16.3081 9.14539C15.9981 9.54078 15.5397 9.7675 15.0505 9.7675C14.7269 9.7675 14.4646 10.0298 14.4646 10.3534C14.4646 10.677 14.7269 10.9394 15.0505 10.9394C15.6715 10.9394 16.2622 10.7319 16.7434 10.3555C17.5474 11.1311 18.6116 11.5656 19.7475 11.5656C20.3375 11.5656 20.9229 11.4437 21.464 11.2104C22.508 12.2373 23.9126 12.8182 25.3838 12.8182C26.0153 12.8182 26.6336 12.7122 27.2281 12.5026C28.5972 14.6413 30.9643 15.9495 33.5252 15.9495C37.6468 15.9495 41 12.5963 41 8.47477C41 4.3532 37.6468 1 33.5252 1Z" fill="#37474F"/>
<path d="M15.9899 33.5656C15.6663 33.5656 15.4039 33.8279 15.4039 34.1515V35.404C15.4039 35.7276 15.6663 35.9899 15.9899 35.9899C16.3135 35.9899 16.5758 35.7276 16.5758 35.404V34.1515C16.5758 33.8279 16.3135 33.5656 15.9899 33.5656Z" fill="#37474F"/>
<path d="M18.495 33.5656C18.1714 33.5656 17.9091 33.8279 17.9091 34.1515V35.404C17.9091 35.7276 18.1714 35.9899 18.495 35.9899C18.8186 35.9899 19.0809 35.7276 19.0809 35.404V34.1515C19.0809 33.8279 18.8186 33.5656 18.495 33.5656Z" fill="#37474F"/>
<path d="M21 33.5656C20.6764 33.5656 20.4141 33.8279 20.4141 34.1515V35.404C20.4141 35.7276 20.6764 35.9899 21 35.9899C21.3236 35.9899 21.5859 35.7276 21.5859 35.404V34.1515C21.5859 33.8279 21.3236 33.5656 21 33.5656Z" fill="#37474F"/>
<path d="M23.505 33.5656C23.1814 33.5656 22.9191 33.8279 22.9191 34.1515V35.404C22.9191 35.7276 23.1814 35.9899 23.505 35.9899C23.8286 35.9899 24.0909 35.7276 24.0909 35.404V34.1515C24.0909 33.8279 23.8287 33.5656 23.505 33.5656Z" fill="#37474F"/>
<path d="M26.0101 33.5656C25.6865 33.5656 25.4242 33.8279 25.4242 34.1515V35.404C25.4242 35.7276 25.6865 35.9899 26.0101 35.9899C26.3337 35.9899 26.5961 35.7276 26.5961 35.404V34.1515C26.5961 33.8279 26.3337 33.5656 26.0101 33.5656Z" fill="#37474F"/>
<path d="M28.5151 33.5656C28.1915 33.5656 27.9292 33.8279 27.9292 34.1515V35.404C27.9292 35.7276 28.1915 35.9899 28.5151 35.9899C28.8387 35.9899 29.1011 35.7276 29.1011 35.404V34.1515C29.1011 33.8279 28.8387 33.5656 28.5151 33.5656Z" fill="#37474F"/>
<path d="M31.0201 33.5656C30.6965 33.5656 30.4342 33.8279 30.4342 34.1515V35.404C30.4342 35.7276 30.6965 35.9899 31.0201 35.9899C31.3437 35.9899 31.6061 35.7276 31.6061 35.404V34.1515C31.6061 33.8279 31.3437 33.5656 31.0201 33.5656Z" fill="#37474F"/>
<path d="M33.5253 33.5656C33.2017 33.5656 32.9393 33.8279 32.9393 34.1515V35.404C32.9393 35.7276 33.2017 35.9899 33.5253 35.9899C33.8489 35.9899 34.1112 35.7276 34.1112 35.404V34.1515C34.1112 33.8279 33.8489 33.5656 33.5253 33.5656Z" fill="#37474F"/>
</svg>
