<svg width="24" height="15" viewBox="0 0 24 15" fill="none" xmlns="http://www.w3.org/2000/svg">
<path d="M1.01158 13.9976V12.0423H23.5244V13.9999L1.01158 13.9976ZM0.962891 11.9914L6.08542 6.85229H18.3367L23.6062 11.9914H0.962891Z" fill="white" stroke="#707070" stroke-width="0.357805" stroke-linecap="round" stroke-linejoin="round"/>
<rect x="1.93042" y="6.16064" width="20.3204" height="2.58037" fill="white"/>
<path d="M6.47658 7.19846V5.49519V5.49513H6.50158C6.50131 5.44811 6.50955 5.40142 6.52592 5.35734L6.47658 7.19846ZM6.47658 7.19846H5.92352V6.52992V6.50492H5.89852H5.29684H5.27184V6.52992V7.19616H4.41703V6.52992V6.50492H4.39203H3.7876H3.7626V6.52992V7.19616H3.18408H3.15908V7.22116V7.9124V7.9374H3.18408H3.76214V8.57864M6.47658 7.19846L3.76214 8.57864M21.3049 6.876C21.3059 6.81731 21.2935 6.75915 21.2687 6.70595C21.2439 6.65268 21.2072 6.60578 21.1615 6.56881L21.1546 6.56325H21.1538L19.4314 5.24723L21.2799 6.87577M21.3049 6.876C21.3049 6.87607 21.3049 6.87615 21.3049 6.87622L21.2799 6.87577M21.3049 6.876V6.87577H21.2799M21.3049 6.876V8.94825M21.2799 6.87577V8.94903M21.3049 8.94825C21.3049 8.94799 21.3048 8.94772 21.3048 8.94745L21.2799 8.94903M21.3049 8.94825C21.3105 9.04033 21.2797 9.13094 21.219 9.20047C21.1582 9.2702 21.0722 9.3131 20.9799 9.31982L20.9781 9.31995V9.31988H3.18408H3.15908V9.29488V8.60364V8.57864H3.18408H3.76214M21.3049 8.94825V8.94903H21.2799M21.2799 8.94903C21.2853 9.03481 21.2567 9.11927 21.2002 9.18404C21.1436 9.2488 21.0639 9.28864 20.9781 9.29488L3.76214 8.57864M11.6305 5.81375L11.6305 5.81368H11.6287H9.21602V5.81362L9.21423 5.81375C9.12188 5.82034 9.03588 5.8632 8.97501 5.93297C8.91432 6.00253 8.88351 6.09321 8.88926 6.18532V8.5791H7.12963V5.56855L7.96517 3.33512L10.4226 1.77048L12.88 3.33512L13.7151 5.56855V8.57864H11.9555V6.18534C11.9612 6.09322 11.9304 6.00253 11.8697 5.93297C11.8088 5.8632 11.7228 5.82034 11.6305 5.81375ZM15.5247 7.07504V8.58094H14.37V6.18973L15.5247 7.07504ZM16.1796 7.24662H18.844V8.5791H16.1796V7.24662ZM19.9121 6.50538H15.9527L15.1133 5.86414H19.0728L19.9121 6.50538ZM18.6768 5.1229H14.2576L13.6301 3.44457H18.0479L18.6768 5.1229ZM11.6723 1.71625L15.4657 1.7167L17.015 2.70333H13.2224L11.6723 1.71625ZM6.4752 7.93786V8.5791H5.92352V7.93786H6.4752ZM5.27184 7.93786V8.5791H4.41686L4.4126 7.93786H5.27184ZM19.492 8.5791V7.24662H20.6486V8.5791H19.492Z" fill="#797979" stroke="white" stroke-width="0.05"/>
<path d="M8.31152 3.78137H8.91458V4.4276H8.31152V3.78137Z" fill="#797979" stroke="white" stroke-width="0.223628"/>
<path d="M11.9302 3.78137H12.5332V4.4276H11.9302V3.78137Z" fill="#797979" stroke="white" stroke-width="0.223628"/>
<path d="M10.1211 2.39087H10.7242V3.0371H10.1211V2.39087Z" fill="#797979" stroke="white" stroke-width="0.223628"/>
</svg>
