<svg width="40" height="40" viewBox="0 0 40 40" fill="none" xmlns="http://www.w3.org/2000/svg">
<path d="M32.3364 0C28.1096 0 24.6707 3.43789 24.6707 7.66375V11.0686C24.6707 11.0686 19.2151 8.18484 19.1187 8.13164C18.3731 7.72023 18.1667 7.72016 17.421 8.13164C17.3246 8.18484 6.78495 13.7534 6.78495 13.7534C5.89144 14.2234 5.76581 14.3584 5.38823 14.9864C5.32667 15.0888 0.255578 23.1294 0.255578 23.1294C0.00753107 23.5218 -0.0629377 23.9858 0.0572186 24.4358C0.183547 24.9089 0.513469 25.3162 0.961672 25.5526C1.24652 25.7034 1.55402 25.7752 1.85737 25.7752C2.34191 25.7752 2.8148 25.591 3.16558 25.2527V30.3343C3.16558 30.6579 3.42792 30.9202 3.75152 30.9202C4.07511 30.9202 4.33745 30.6579 4.33745 30.3343V23.4952C4.33745 23.4952 8.17605 17.4127 8.21652 17.3481C8.39886 17.0568 8.47652 16.9354 8.56777 16.8545C8.67191 16.7623 8.85409 16.662 9.24472 16.4555L18.073 11.7955C18.1356 11.7623 18.1894 11.7327 18.2365 11.707C18.2475 11.7009 18.2588 11.6948 18.27 11.6887C18.2811 11.6948 18.2924 11.7009 18.3034 11.707C18.3505 11.7328 18.4043 11.7623 18.4682 11.7962C18.4682 11.7962 27.702 16.6722 27.8152 16.7423C27.8831 16.7843 27.9331 16.82 27.9721 16.8546C28.0633 16.9355 28.141 17.0569 28.3234 17.3482C28.3639 17.4128 32.2024 23.4952 32.2024 23.4952V36.0511H25.5679V27.8995H26.5542C27.1521 27.8995 27.6385 27.4131 27.6385 26.8153V25.1411C27.6385 24.5433 27.1521 24.0569 26.5542 24.0569H19.9041C19.5805 24.0569 19.3182 24.3192 19.3182 24.6428C19.3182 24.9664 19.5805 25.2288 19.9041 25.2288H26.4666V26.7277H10.0752V25.2288H17.2002C17.5238 25.2288 17.7861 24.9664 17.7861 24.6428C17.7861 24.3192 17.5238 24.0569 17.2002 24.0569H9.98753C9.38972 24.0569 8.90331 24.5433 8.90331 25.1411V26.8153C8.90331 27.4131 9.38972 27.8995 9.98753 27.8995H10.9739V36.051H4.33737V33.0383C4.33737 32.7147 4.07503 32.4523 3.75144 32.4523C3.42784 32.4523 3.1655 32.7147 3.1655 33.0383V39.0177C3.1655 39.5594 3.6062 40 4.14784 40H38.9843C39.5443 40 39.9999 39.5444 39.9999 38.9845V7.66375C40 3.43789 36.5621 0 32.3364 0ZM10.9739 38.8281H4.33737V37.223H10.9739L10.9739 38.8281ZM23.457 27.8995L18.2709 32.5749L13.0848 27.8995H23.457ZM12.1458 28.6307L17.3959 33.3638L12.1458 38.097V28.6307ZM13.0849 38.8281L18.271 34.1527L23.457 38.8281H13.0849ZM24.396 38.097L19.146 33.3638L24.396 28.6307V38.097ZM32.2022 38.8281H25.5679V37.223H32.2022V38.8281ZM36.3776 23.2951C36.3505 23.2388 36.3203 23.1836 36.2865 23.1297L32.2283 16.7027H38.8281V23.2951H36.3776ZM25.8426 7.66375C25.8426 4.08414 28.7557 1.17188 32.3365 1.17188C35.9159 1.17188 38.8281 4.08406 38.8281 7.66375V7.7643H25.8426V7.66375ZM25.8426 8.93617H38.8281V15.5309H31.4883C31.4883 15.5309 31.2131 15.089 31.1514 14.9866C30.774 14.3588 30.6483 14.2237 29.7555 13.754L25.8425 11.6876V8.93617H25.8426ZM33.2837 23.0125C33.2837 23.0125 29.356 16.7894 29.3165 16.7263C28.9416 16.1275 28.8076 15.9587 28.2789 15.6566C28.2382 15.6334 18.9095 10.7029 18.8663 10.6792C18.4678 10.4609 18.2532 10.4198 17.9235 10.5564C17.9207 10.5576 17.9176 10.5591 17.9147 10.5603C17.8666 10.5805 8.69714 15.4195 8.69714 15.4195C7.78097 15.9038 7.68456 15.9894 7.22308 16.7264C7.18362 16.7895 3.25589 23.0126 3.25589 23.0126C3.25511 23.0138 3.25464 23.0152 3.25386 23.0164L2.44964 24.2906C2.26409 24.5849 1.83362 24.6887 1.50909 24.5167C1.34816 24.4319 1.23159 24.2923 1.18933 24.1338C1.16464 24.0413 1.15448 23.9007 1.24628 23.7555C1.24628 23.7555 6.3273 15.6989 6.39253 15.5905C6.66191 15.1425 6.66191 15.1425 7.33136 14.7902C7.33136 14.7902 18.2058 9.03719 18.2698 9.00797C18.3339 9.03719 29.2082 14.7902 29.2082 14.7902C29.2085 14.7904 29.2088 14.7905 29.2091 14.7907C29.8778 15.1424 29.8778 15.1424 30.1471 15.5905C30.2123 15.699 30.289 15.8265 30.386 15.9802L35.2949 23.7543C35.3861 23.8996 35.3757 24.0409 35.3508 24.1339C35.3083 24.2927 35.1921 24.4323 35.0327 24.5166C34.7025 24.6909 34.2792 24.5888 34.0898 24.2904L33.2857 23.0164C33.285 23.0151 33.2845 23.0137 33.2837 23.0125ZM38.8281 38.8281H33.3741V32.2335H38.8281V38.8281ZM33.3741 31.0616V25.25C33.9454 25.8002 34.84 25.9433 35.5802 25.5527C36.0177 25.3211 36.3416 24.9265 36.4738 24.467H38.8281V31.0617H33.3741V31.0616Z" fill="#37474F"/>
<path d="M22.2861 18.5838C22.2861 16.3692 20.4844 14.5675 18.2698 14.5675C16.0565 14.5675 14.2559 16.3692 14.2559 18.5838C14.2559 20.7984 16.0566 22.6002 18.2698 22.6002C20.4845 22.6001 22.2861 20.7984 22.2861 18.5838ZM15.4277 18.5838C15.4277 17.0154 16.7027 15.7394 18.2698 15.7394C19.8382 15.7394 21.1142 17.0154 21.1142 18.5838C21.1142 20.1523 19.8382 21.4283 18.2698 21.4283C16.7027 21.4282 15.4277 20.1522 15.4277 18.5838Z" fill="#37474F"/>
</svg>
