<svg width="42" height="40" viewBox="0 0 42 40" fill="none" xmlns="http://www.w3.org/2000/svg">
<path d="M36.545 3.36376C36.2645 3.08345 35.8098 3.08322 35.5291 3.36376L28.0816 10.8111C27.8009 11.0917 27.8009 11.5463 28.0815 11.827C28.2218 11.9672 28.4056 12.0373 28.5895 12.0373C28.7732 12.0373 28.9571 11.9672 29.0974 11.827L36.545 4.37962C36.8255 4.099 36.8255 3.64423 36.545 3.36376Z" fill="#37474F"/>
<path d="M38.5703 5.35714C38.2897 5.07675 37.835 5.07675 37.5545 5.35714L30.107 12.8046C29.8265 13.0853 29.8265 13.54 30.1069 13.8205C30.2472 13.9607 30.4311 14.0308 30.6149 14.0308C30.7986 14.0308 30.9825 13.9607 31.1228 13.8205L38.5703 6.37292C38.8509 6.09238 38.8509 5.63761 38.5703 5.35714Z" fill="#37474F"/>
<path d="M31.5444 17.9335L40.7896 8.68834C41.0701 8.40771 41.0701 7.95303 40.7896 7.67248C40.5089 7.39217 40.0543 7.39193 39.7737 7.67248L30.5287 16.9176C29.3897 18.0565 27.6482 18.3554 26.1951 17.6615C25.9061 17.5235 25.5609 17.5933 25.3483 17.8328L22.207 21.3721C22.2057 21.3734 22.2043 21.3746 22.2031 21.376C22.2018 21.3774 22.2009 21.3789 22.1996 21.3803L8.62239 36.6769C8.61895 36.6808 8.61551 36.6848 8.61215 36.6888C8.56739 36.7414 8.52512 36.7876 8.48231 36.8304C7.58582 37.7269 6.12723 37.7268 5.23114 36.8304C4.79692 36.3963 4.55778 35.8189 4.55778 35.2048C4.55778 34.5908 4.79692 34.0134 5.23192 33.5784C5.27364 33.5365 5.31973 33.4944 5.37278 33.4492C5.37684 33.4458 5.38075 33.4424 5.38465 33.439L13.8728 25.9051C14.1695 25.6417 14.1964 25.1877 13.9332 24.8911C13.6698 24.5943 13.2157 24.5672 12.9192 24.8307L4.43668 32.3596C4.35559 32.4287 4.28301 32.4957 4.21536 32.5634C3.50981 33.269 3.12122 34.207 3.12122 35.2048C3.12122 36.2026 3.50973 37.1407 4.21528 37.8462C4.94364 38.5744 5.90012 38.9386 6.85684 38.9385C7.81317 38.9385 8.76989 38.5745 9.4977 37.8466C9.56668 37.7778 9.63348 37.7051 9.70207 37.6248L20.0483 25.9681L30.3947 37.625C30.4632 37.7054 30.53 37.778 30.5986 37.8464C31.3268 38.5746 32.2833 38.9387 33.2399 38.9387C34.1965 38.9387 35.1532 38.5745 35.8814 37.8463C37.3377 36.3898 37.3377 34.0201 35.8818 32.564C35.8131 32.4951 35.7404 32.4283 35.6601 32.3597L23.7546 21.7926L26.0839 19.1682C27.9711 19.8369 30.1066 19.3711 31.5444 17.9335ZM34.712 33.439C34.7159 33.4425 34.7199 33.4459 34.7239 33.4493C34.7764 33.494 34.8226 33.5363 34.8655 33.5791C35.7618 34.4755 35.7618 35.934 34.8656 36.8303C33.9691 37.7266 32.5106 37.7266 31.6139 36.8299C31.5714 36.7875 31.529 36.7412 31.4843 36.6887C31.4809 36.6847 31.4775 36.6807 31.474 36.6768L21.0086 24.886L22.8007 22.8669L34.712 33.439Z" fill="#37474F"/>
<path d="M34.389 1.27169C34.1084 0.991304 33.6537 0.991304 33.3731 1.27169L24.1281 10.5169C22.6902 11.9547 22.2245 14.09 22.8932 15.9776L20.0483 18.5028L17.3141 16.0759C18.728 13.2937 18.2119 9.91568 15.9686 7.67232C13.7406 5.44435 11.16 3.87646 8.7021 3.25763C6.13624 2.61177 3.9364 3.04294 2.50718 4.47208C1.07796 5.90123 0.646711 8.10138 1.29273 10.6671C1.91163 13.1248 3.47945 15.7054 5.70757 17.9333C7.95085 20.1768 11.3288 20.6929 14.1112 19.2789C14.1112 19.2789 16.785 22.2912 16.8189 22.3295C16.9609 22.4894 17.1581 22.5709 17.3564 22.5709C17.526 22.5709 17.6962 22.5112 17.833 22.3898L24.2287 16.7129C24.4682 16.5004 24.538 16.1551 24.4001 15.8661C23.706 14.4129 24.0049 12.6715 25.1439 11.5327L34.389 2.28755C34.6695 2.00693 34.6695 1.55224 34.389 1.27169ZM17.4165 20.8388L14.8018 17.893C14.5702 17.6322 14.1844 17.5751 13.8876 17.7585C11.5846 19.1786 8.63851 18.833 6.7232 16.9176C4.67601 14.8705 3.24218 12.5262 2.6857 10.3163C2.16812 8.26029 2.46546 6.54544 3.52304 5.48794C4.58046 4.43029 6.2953 4.1331 8.35124 4.65076C10.5612 5.20716 12.9056 6.64091 14.9526 8.6881C16.868 10.6033 17.2136 13.5494 15.7934 15.8524C15.6103 16.1494 15.6671 16.535 15.928 16.7666L18.9661 19.4632L17.4165 20.8388Z" fill="#37474F"/>
</svg>
