<svg width="49" height="41" viewBox="0 0 49 41" fill="none" xmlns="http://www.w3.org/2000/svg">
<path d="M29.6546 0.686594L11.0271 18.9125L29.6546 0.686594ZM29.6546 0.686594L29.498 0.533203L29.6546 0.686594ZM29.6546 0.686594L29.8111 0.533203L29.6546 0.686594L48.282 18.9125L29.6546 0.686594Z" stroke="#37474F" stroke-width="1.06522" stroke-linecap="round" stroke-linejoin="round"/>
<path d="M5.38794 37.9032V29.4443" stroke="#37474F" stroke-width="1.06522"/>
<path d="M5.51367 29.6326V20.2012" stroke="#37474F" stroke-width="1.06522"/>
<path d="M5.51355 29.1004C8.26446 29.1004 10.4945 25.6361 10.4945 21.3627C10.4945 17.0892 8.26446 13.6249 5.51355 13.6249C2.76264 13.6249 0.532593 17.0892 0.532593 21.3627C0.532593 25.6361 2.76264 29.1004 5.51355 29.1004Z" stroke="#37474F" stroke-width="1.06522"/>
<path d="M5.4209 24.3845L8.22668 21.7949" stroke="#37474F" stroke-width="1.06522"/>
<path d="M5.42084 24.3845L2.8313 21.7949" stroke="#37474F" stroke-width="1.06522"/>
<g clip-path="url(#clip0_8_556)">
<path d="M16.5109 14.9131V38.3511" stroke="#37474F" stroke-width="1.06522"/>
<path d="M43.6579 38.0176H16.5109" stroke="#37474F" stroke-width="1.06522"/>
<path d="M43.658 14.9131V38.3511" stroke="#37474F" stroke-width="1.06522"/>
</g>
<defs>
<clipPath id="clip0_8_556">
<rect width="28.2123" height="23.6372" fill="white" transform="translate(15.9783 14.9131)"/>
</clipPath>
</defs>
</svg>
