<svg width="35" height="40" viewBox="0 0 35 40" fill="none" xmlns="http://www.w3.org/2000/svg">
<rect x="1" y="18.4355" width="24.1147" height="1" rx="0.5" transform="rotate(-46.3048 1 18.4355)" fill="#37474F"/>
<rect x="17.9427" y="1.19574" width="24.1077" height="1" rx="0.5" transform="rotate(46 17.9427 1.19574)" fill="#37474F"/>
<path d="M26.0932 18.7012V22.5081H25.43C25.3541 21.9796 25.0906 21.496 24.6875 21.1459C24.2844 20.7958 23.7687 20.6025 23.2348 20.6013H16.5768V22.5081H15.766C15.8802 22.3161 15.9412 22.0972 15.9426 21.8739C15.9417 21.5378 15.8076 21.2158 15.5697 20.9785C15.3318 20.7412 15.0094 20.6079 14.6734 20.6079H12.7666C12.43 20.6079 12.1071 20.7417 11.8691 20.9797C11.6311 21.2177 11.4974 21.5406 11.4974 21.8772C11.4988 22.1005 11.5597 22.3194 11.6739 22.5114H10.8698V18.7012H8.96301V35.1989H10.8698V33.2921H26.0932V35.1989H28V18.7012H26.0932ZM12.7699 21.2388H14.6767C14.845 21.2388 15.0064 21.3057 15.1254 21.4247C15.2444 21.5437 15.3113 21.7051 15.3113 21.8735C15.3113 22.0418 15.2444 22.2032 15.1254 22.3222C15.0064 22.4412 14.845 22.5081 14.6767 22.5081H12.7699C12.6016 22.5081 12.4402 22.4412 12.3212 22.3222C12.2022 22.2032 12.1353 22.0418 12.1353 21.8735C12.1353 21.7051 12.2022 21.5437 12.3212 21.4247C12.4402 21.3057 12.6016 21.2388 12.7699 21.2388ZM9.59722 19.3321H10.2314V22.5048H9.59722V19.3321ZM9.59722 25.6766H10.2314V30.1177H9.59722V25.6766ZM10.2314 34.5588H9.59722V33.2921H10.2314V34.5588ZM27.3617 34.5588H26.7275V33.2921H27.3617V34.5588ZM27.3617 32.6521H9.59722V30.7453H16.5768V32.0146H25.4607V30.7561H27.3675L27.3617 32.6521ZM23.2381 28.2184H16.5768V30.1252H15.766C15.8802 29.9333 15.9412 29.7143 15.9426 29.491C15.943 29.324 15.9105 29.1586 15.8469 29.0043C15.7834 28.8499 15.6899 28.7096 15.572 28.5914C15.4541 28.4731 15.3141 28.3794 15.1599 28.3154C15.0056 28.2514 14.8403 28.2184 14.6734 28.2184H12.7666C12.4307 28.2193 12.1088 28.3533 11.8715 28.5911C11.6343 28.8288 11.5009 29.1509 11.5007 29.4868C11.5021 29.7102 11.5631 29.9291 11.6773 30.1211H10.8698V25.6799H26.0932V30.1211H25.43C25.3533 29.5939 25.0898 29.1118 24.6875 28.7625C24.2852 28.4133 23.7708 28.2202 23.2381 28.2184ZM15.3043 29.4844C15.3043 29.6526 15.2374 29.8139 15.1185 29.9328C14.9996 30.0517 14.8383 30.1186 14.6701 30.1186H12.7633C12.595 30.1186 12.4336 30.0517 12.3145 29.9327C12.1955 29.8137 12.1287 29.6523 12.1287 29.4839C12.1287 29.3156 12.1955 29.1542 12.3145 29.0352C12.4336 28.9162 12.595 28.8493 12.7633 28.8493H14.6701C14.7539 28.8489 14.837 28.8651 14.9145 28.897C14.9921 28.9288 15.0625 28.9758 15.1218 29.0351C15.1811 29.0944 15.2281 29.1648 15.2599 29.2424C15.2918 29.3199 15.308 29.403 15.3076 29.4868L15.3043 29.4844ZM27.3592 30.1186H26.725V25.6799H27.3592V30.1186ZM27.3592 25.0432H9.59722V23.1365H16.5768V24.4057H25.4607V23.1423H27.3675L27.3592 25.0432ZM27.3592 22.5056H26.725V19.3354H27.3592V22.5056Z" fill="#37474F"/>
<rect x="3" y="19" width="1" height="20" fill="#37474F"/>
<rect x="32" y="19" width="1" height="20" fill="#37474F"/>
<rect x="4" y="39" width="0.999999" height="29" transform="rotate(-90 4 39)" fill="#37474F"/>
</svg>
