<svg width="42" height="39" viewBox="0 0 42 39" fill="none" xmlns="http://www.w3.org/2000/svg">
<path d="M11.9437 31.2076C11.7984 31.0622 11.5968 30.9787 11.3914 30.9787C11.1859 30.9787 10.9843 31.0622 10.839 31.2076C10.6937 31.3529 10.6101 31.5545 10.6101 31.7607C10.6101 31.9662 10.6937 32.167 10.839 32.3123C10.9843 32.4584 11.1859 32.542 11.3914 32.542C11.5968 32.542 11.7984 32.4584 11.9437 32.3123C12.089 32.1671 12.1726 31.9662 12.1726 31.7607C12.1726 31.5544 12.089 31.3536 11.9437 31.2076Z" fill="#37474F"/>
<path d="M40.2188 24.4166H37.8751V22.5026H40.2136C40.4458 22.5026 40.666 22.3993 40.8144 22.2208C40.9628 22.0422 41.0241 21.8068 40.9816 21.5785L40.0835 16.748C40.0147 16.378 39.6918 16.1096 39.3154 16.1096H34.872C34.4956 16.1096 34.1727 16.378 34.1039 16.748L33.2058 21.5785C33.1634 21.8068 33.2246 22.0422 33.373 22.2208C33.5215 22.3993 33.7416 22.5026 33.9738 22.5026H36.3123V24.4166H33.9688C33.7295 24.4166 33.5156 24.5244 33.3723 24.6939C32.7692 24.1213 32.0055 23.7171 31.1563 23.5567V19.5729C31.1563 17.936 29.8245 16.6042 28.1877 16.6042H23.1878C22.3229 16.6042 21.5435 16.9762 21.0004 17.5684C20.4573 16.9762 19.6778 16.6042 18.813 16.6042H13.8131C12.1762 16.6042 10.8445 17.936 10.8445 19.5729V23.5565C9.99469 23.7167 9.2307 24.121 8.6275 24.6939C8.4843 24.5244 8.27047 24.4166 8.03117 24.4166H5.68734V22.5026H8.02586C8.25805 22.5026 8.47828 22.3993 8.62664 22.2208C8.77508 22.0422 8.83641 21.8068 8.79391 21.5785L7.89578 16.748C7.82695 16.378 7.50406 16.1096 7.12766 16.1096H2.68445C2.30805 16.1096 1.98516 16.378 1.91633 16.748L1.0182 21.5785C0.975781 21.8067 1.03711 22.0421 1.18547 22.2207C1.33391 22.3992 1.55406 22.5025 1.78625 22.5025H4.12484V24.4165H1.78125C1.34977 24.4165 1 24.7664 1 25.1978V36.1089C1 36.5403 1.34977 36.8902 1.78125 36.8902H40.2188C40.6502 36.8902 41 36.5403 41 36.1089V25.1978C41 24.7664 40.6502 24.4166 40.2188 24.4166ZM2.72625 20.9401L3.33383 17.672H6.47836L7.08594 20.9401H2.72625ZM7.24984 27.8931V35.3278H2.5625V25.979H7.24984V27.8931ZM21.7817 19.5729C21.7817 18.7975 22.4126 18.1667 23.188 18.1667H28.1878C28.9632 18.1667 29.5941 18.7975 29.5941 19.5729V23.4791H21.7818L21.7817 19.5729ZM12.407 19.5729C12.407 18.7975 13.0378 18.1667 13.8132 18.1667H18.813C19.5884 18.1667 20.2193 18.7975 20.2193 19.5729V23.4791H12.407L12.407 19.5729ZM33.1877 30.9791H14.504C14.0725 30.9791 13.7227 31.3289 13.7227 31.7603C13.7227 32.1917 14.0725 32.5416 14.504 32.5416H33.1877V35.3278H8.81227V28.1665H13.954C14.3855 28.1665 14.7352 27.8167 14.7352 27.3853C14.7352 26.9539 14.3855 26.604 13.954 26.604H9.12156C9.59313 25.6778 10.5553 25.0415 11.6637 25.0415H21.0005H30.3362C31.9084 25.0415 33.1877 26.3207 33.1877 27.893L33.1877 30.9791ZM34.914 20.9401L35.5216 17.672H38.6662L39.2738 20.9401H34.914ZM39.4375 35.3278H34.7502V27.893V25.979H39.4375V35.3278Z" fill="#37474F"/>
<path d="M18.5359 1.10986H6.8634C6.43192 1.10986 6.08215 1.45971 6.08215 1.89111V10.0159C6.08215 10.4473 6.43192 10.7971 6.8634 10.7971H18.5359C18.9674 10.7971 19.3172 10.4473 19.3172 10.0159V1.89111C19.3172 1.45971 18.9674 1.10986 18.5359 1.10986ZM17.7547 9.23471H7.64465V2.67236H17.7547V9.23471Z" fill="#37474F"/>
<path d="M35.1376 1.10986H23.4651C23.0336 1.10986 22.6838 1.45971 22.6838 1.89111V10.0159C22.6838 10.4473 23.0336 10.7971 23.4651 10.7971H35.1376C35.5691 10.7971 35.9188 10.4473 35.9188 10.0159V1.89111C35.9188 1.45971 35.5691 1.10986 35.1376 1.10986ZM34.3563 9.23471H24.2463V2.67236H34.3563V9.23471Z" fill="#37474F"/>
<path d="M18.0482 26.8327C17.9029 26.6874 17.7013 26.6038 17.4958 26.6038C17.2896 26.6038 17.0888 26.6873 16.9427 26.8327C16.7974 26.9788 16.7146 27.1795 16.7146 27.385C16.7146 27.5905 16.7974 27.792 16.9427 27.9373C17.0888 28.0834 17.2896 28.1663 17.4958 28.1663C17.7013 28.1663 17.9029 28.0834 18.0482 27.9373C18.1935 27.792 18.2771 27.5912 18.2771 27.385C18.2771 27.1795 18.1935 26.978 18.0482 26.8327Z" fill="#37474F"/>
</svg>
