<svg width="340" height="192" viewBox="0 0 340 192" fill="none" xmlns="http://www.w3.org/2000/svg">
<rect width="340.442" height="191.026" fill="#F2F2F2"/>
<path d="M138.55 69.4667H202.45C204.408 69.4667 206 71.0591 206 73.0167V117.983C206 119.941 204.408 121.533 202.45 121.533H138.55C136.592 121.533 135 119.941 135 117.983V100.435C135 100.434 135 100.434 135 100.434V73.0167C135 71.0591 136.592 69.4667 138.55 69.4667ZM202.45 119.167C203.102 119.167 203.633 118.636 203.633 117.983V103.303L192.627 92.2961C192.182 91.8454 191.424 91.8396 190.967 92.302L179.271 103.987L194.455 119.167H202.45ZM137.367 117.983C137.367 118.636 137.898 119.167 138.55 119.167H191.108L155.943 84.0127C155.499 83.562 154.74 83.5562 154.285 84.0185L137.367 100.925V117.983H137.367ZM137.367 97.5787L152.606 82.3499C153.948 80.992 156.291 80.9978 157.622 82.3441L177.598 102.314L189.289 90.6333C190.631 89.2754 192.974 89.2807 194.305 90.6282L203.633 99.9566V73.0167C203.633 72.3644 203.102 71.8334 202.45 71.8334H138.55C137.898 71.8334 137.367 72.3644 137.367 73.0167V97.5787V97.5787Z" fill="#737678"/>
<path d="M176.417 77.75C180.332 77.75 183.517 80.9349 183.517 84.85C183.517 88.7651 180.332 91.95 176.417 91.95C172.501 91.95 169.317 88.7651 169.317 84.85C169.317 80.9349 172.501 77.75 176.417 77.75ZM176.417 89.5833C179.027 89.5833 181.15 87.4598 181.15 84.85C181.15 82.2402 179.027 80.1167 176.417 80.1167C173.807 80.1167 171.683 82.2402 171.683 84.85C171.683 87.4598 173.807 89.5833 176.417 89.5833Z" fill="#737678"/>
</svg>
