<svg width="16" height="15" viewBox="0 0 16 15" fill="none" xmlns="http://www.w3.org/2000/svg">
<path d="M13.0316 6.02486H12.4911L12.1502 1.19318C12.1472 1.14962 12.1273 1.10881 12.0946 1.07903C12.0618 1.04925 12.0187 1.03274 11.974 1.03284H10.9169C10.8721 1.03274 10.829 1.04925 10.7963 1.07903C10.7636 1.10881 10.7437 1.14962 10.7407 1.19318L10.3998 6.02486H10.035V4.99319C10.0352 4.96069 10.0259 4.92882 10.0082 4.90127C9.99052 4.87373 9.96521 4.85163 9.9352 4.83755C9.90518 4.82347 9.8717 4.81798 9.83862 4.82171C9.80554 4.82544 9.77422 4.83824 9.74829 4.85864L8.27094 6.01196V4.99319C8.27107 4.96069 8.26176 4.92882 8.24409 4.90127C8.22642 4.87373 8.20111 4.85163 8.1711 4.83755C8.14109 4.82347 8.1076 4.81798 8.07452 4.82171C8.04144 4.82544 8.01012 4.83824 7.98419 4.85864L6.50508 6.0111V4.99232C6.50531 4.95983 6.4961 4.92794 6.47852 4.90034C6.46094 4.87274 6.4357 4.85058 6.40574 4.83641C6.37577 4.82224 6.3423 4.81664 6.30922 4.82027C6.27613 4.8239 6.24477 4.83661 6.21878 4.85692L4.74143 6.0111V4.99232C4.74148 4.96182 4.73322 4.93185 4.71749 4.90549C4.70176 4.87912 4.67913 4.85732 4.65192 4.84231C4.6247 4.82731 4.59389 4.81963 4.56263 4.82009C4.53138 4.82054 4.50081 4.8291 4.47406 4.84488L2.71217 5.87656C2.68555 5.89165 2.66346 5.91328 2.64808 5.9393C2.6327 5.96532 2.62458 5.99482 2.62451 6.02486V10.1563C2.62451 10.1789 2.62907 10.2012 2.63792 10.2221C2.64678 10.243 2.65976 10.2619 2.67612 10.2779C2.69248 10.2938 2.7119 10.3065 2.73328 10.3152C2.75465 10.3238 2.77756 10.3282 2.8007 10.3282H13.0316C13.0547 10.3282 13.0776 10.3238 13.099 10.3152C13.1204 10.3065 13.1398 10.2938 13.1562 10.2779C13.1725 10.2619 13.1855 10.243 13.1944 10.2221C13.2032 10.2012 13.2078 10.1789 13.2078 10.1563V6.19724C13.2078 6.17462 13.2033 6.15221 13.1945 6.1313C13.1857 6.11039 13.1727 6.09139 13.1563 6.07538C13.14 6.05936 13.1205 6.04666 13.0991 6.03799C13.0777 6.02932 13.0548 6.02486 13.0316 6.02486ZM11.0816 1.37501H11.8084L12.1387 6.02486H10.7512L11.0816 1.37501ZM8.62376 9.9822V7.91842H9.6809V9.98435L8.62376 9.9822ZM12.8572 9.9822H10.0328V7.74647C10.0328 7.70087 10.0143 7.65713 9.98123 7.62489C9.94819 7.59264 9.90338 7.57452 9.85665 7.57452H8.44713C8.4004 7.57452 8.35559 7.59264 8.32255 7.62489C8.2895 7.65713 8.27094 7.70087 8.27094 7.74647V9.98435H2.97689V6.12244L4.38641 5.29624V6.3709C4.38628 6.4034 4.39559 6.43527 4.41326 6.46282C4.43093 6.49036 4.45624 6.51245 4.48625 6.52654C4.51626 6.54062 4.54975 6.54611 4.58283 6.54238C4.61591 6.53865 4.64723 6.52584 4.67315 6.50545L6.1505 5.35212V6.3709C6.15037 6.4034 6.15968 6.43527 6.17735 6.46282C6.19502 6.49036 6.22033 6.51245 6.25034 6.52654C6.28036 6.54062 6.31384 6.54611 6.34692 6.54238C6.38 6.53865 6.41132 6.52584 6.43725 6.50545L7.9146 5.35212V6.3709C7.91447 6.4034 7.92378 6.43527 7.94145 6.46282C7.95912 6.49036 7.98443 6.51245 8.01444 6.52654C8.04445 6.54062 8.07794 6.54611 8.11102 6.54238C8.1441 6.53865 8.17542 6.52584 8.20135 6.50545L9.6787 5.35212V6.19896C9.6787 6.22154 9.68325 6.2439 9.69211 6.26476C9.70096 6.28562 9.71394 6.30457 9.7303 6.32054C9.74666 6.33651 9.76608 6.34917 9.78746 6.35781C9.80884 6.36645 9.83175 6.3709 9.85489 6.3709H12.8536V9.98607L12.8572 9.9822Z" fill="#737678"/>
<path d="M8.62114 0.344002C8.68519 0.37742 8.7431 0.421001 8.79249 0.472961C8.89133 0.590672 9.0322 0.66747 9.18672 0.687894C9.3495 0.667667 9.49823 0.587561 9.60253 0.463934C9.64716 0.418269 9.69713 0.377872 9.7514 0.343572C9.78752 0.343572 9.88355 0.432124 9.93376 0.478549C10.0289 0.593516 10.1656 0.668455 10.3157 0.687894C10.4888 0.666445 10.6472 0.581636 10.7588 0.450608C10.8028 0.411061 10.8676 0.350879 10.8799 0.343572C10.9746 0.343572 10.9962 0.374092 11.0561 0.456196C11.0937 0.525487 11.1497 0.583589 11.2183 0.62437C11.287 0.66515 11.3656 0.687097 11.4459 0.687894C11.4926 0.687894 11.5375 0.669778 11.5705 0.637532C11.6035 0.605286 11.6221 0.56155 11.6221 0.515948C11.6221 0.470345 11.6035 0.42661 11.5705 0.394363C11.5375 0.362117 11.4926 0.344002 11.4459 0.344002C11.4107 0.344002 11.4019 0.341422 11.3464 0.261038C11.3003 0.180338 11.2326 0.11341 11.1505 0.0674392C11.0684 0.0214685 10.975 -0.00180792 10.8803 0.000109595C10.7377 0.019416 10.6079 0.0910461 10.5174 0.200427C10.4588 0.25416 10.3606 0.344431 10.3236 0.345291C10.269 0.312921 10.2191 0.273601 10.1751 0.228368C10.069 0.102241 9.91735 0.0205651 9.7514 0.000109595C9.59862 0.0205195 9.45937 0.096524 9.36158 0.212893C9.31205 0.264703 9.25491 0.309035 9.19201 0.344431C9.13327 0.311593 9.07983 0.270453 9.03343 0.22235C8.9303 0.100069 8.78339 0.0206235 8.62248 0.000109595C8.57575 0.000109595 8.53094 0.0182253 8.49789 0.0504714C8.46485 0.0827175 8.44629 0.126453 8.44629 0.172056C8.44629 0.217659 8.46485 0.261394 8.49789 0.29364C8.53094 0.325886 8.57575 0.344002 8.62248 0.344002H8.62114Z" fill="#737678"/>
<path d="M4.56356 7.91797H3.85881C3.81208 7.91797 3.76726 7.93608 3.73422 7.96833C3.70118 8.00058 3.68262 8.04431 3.68262 8.08991V9.12159C3.68262 9.16719 3.70118 9.21093 3.73422 9.24318C3.76726 9.27543 3.81208 9.29354 3.85881 9.29354H4.56356C4.61029 9.29354 4.65511 9.27543 4.68815 9.24318C4.72119 9.21093 4.73975 9.16719 4.73975 9.12159V8.08991C4.73975 8.04431 4.72119 8.00058 4.68815 7.96833C4.65511 7.93608 4.61029 7.91797 4.56356 7.91797Z" fill="#737678"/>
<path d="M5.97567 7.91797H5.27091C5.22418 7.91797 5.17937 7.93608 5.14633 7.96833C5.11329 8.00058 5.09473 8.04431 5.09473 8.08991V9.12159C5.09473 9.16719 5.11329 9.21093 5.14633 9.24318C5.17937 9.27543 5.22418 9.29354 5.27091 9.29354H5.97567C6.0224 9.29354 6.06721 9.27543 6.10026 9.24318C6.1333 9.21093 6.15186 9.16719 6.15186 9.12159V8.08991C6.15186 8.04431 6.1333 8.00058 6.10026 7.96833C6.06721 7.93608 6.0224 7.91797 5.97567 7.91797Z" fill="#737678"/>
<path d="M7.38656 7.91797H6.6818C6.63507 7.91797 6.59026 7.93608 6.55722 7.96833C6.52418 8.00058 6.50562 8.04431 6.50562 8.08991V9.12159C6.50562 9.16719 6.52418 9.21093 6.55722 9.24318C6.59026 9.27543 6.63507 9.29354 6.6818 9.29354H7.38656C7.43329 9.29354 7.4781 9.27543 7.51114 9.24318C7.54419 9.21093 7.56275 9.16719 7.56275 9.12159V8.08991C7.56275 8.04431 7.54419 8.00058 7.51114 7.96833C7.4781 7.93608 7.43329 7.91797 7.38656 7.91797Z" fill="#737678"/>
<path d="M15.8029 12.3221L11.4921 11.3733C11.2992 11.3308 11.0993 11.3294 10.9059 11.3691C10.7124 11.4088 10.53 11.4888 10.3711 11.6036L9.82085 12.0001C9.62876 12.1389 9.47692 12.3241 9.38025 12.5374L9.34645 12.6115C9.2707 12.7789 9.14679 12.9211 8.98979 13.021C8.83279 13.1208 8.64947 13.174 8.4621 13.174C8.27474 13.174 8.09141 13.1208 7.93442 13.021C7.77742 12.9211 7.65351 12.7789 7.57776 12.6115L7.54396 12.5374C7.44721 12.3241 7.29539 12.1389 7.10336 12.0001L6.55311 11.604C6.39418 11.4892 6.21178 11.4092 6.01834 11.3695C5.82491 11.3298 5.62497 11.3312 5.43216 11.3737L1.12286 12.3221C1.07736 12.3321 1.0367 12.3569 1.00761 12.3925C0.978522 12.4281 0.962746 12.4723 0.962892 12.5179V14.7997C0.962892 14.8528 0.984507 14.9038 1.02298 14.9413C1.06146 14.9789 1.11365 15 1.16806 15H15.7577C15.7847 15.0001 15.8114 14.9949 15.8363 14.9849C15.8612 14.9748 15.8839 14.9601 15.9029 14.9414C15.922 14.9228 15.9371 14.9007 15.9474 14.8764C15.9577 14.8521 15.9629 14.826 15.9629 14.7997V12.5179C15.963 12.4723 15.9473 12.4281 15.9182 12.3925C15.8891 12.3569 15.8484 12.3321 15.8029 12.3221ZM15.5526 14.5993H1.37323V12.6783L5.52452 11.7637C5.65972 11.7339 5.79989 11.7329 5.93553 11.7607C6.07116 11.7885 6.19908 11.8445 6.3106 11.9249L6.86086 12.3213C6.99548 12.4184 7.10205 12.5479 7.17018 12.6971L7.20398 12.7712C7.31188 13.009 7.48817 13.2111 7.71143 13.353C7.9347 13.4949 8.19534 13.5704 8.46171 13.5704C8.72808 13.5704 8.98873 13.4949 9.21199 13.353C9.43526 13.2111 9.61154 13.009 9.71944 12.7712L9.75324 12.6971C9.82129 12.5477 9.92787 12.4181 10.0626 12.321L10.6128 11.9245C10.7244 11.8441 10.8523 11.7882 10.9879 11.7604C11.1235 11.7325 11.2637 11.7335 11.3989 11.7633L15.5529 12.6783L15.5526 14.5993Z" fill="#737678"/>
</svg>
