<svg width="15" height="15" viewBox="0 0 15 15" fill="none" xmlns="http://www.w3.org/2000/svg">
<g clip-path="url(#clip0_544_1634)">
<mask id="path-1-outside-1_544_1634" maskUnits="userSpaceOnUse" x="-0.825684" y="-0.832642" width="17" height="17" fill="black">
<rect fill="white" x="-0.825684" y="-0.832642" width="17" height="17"/>
<path d="M14.4898 14.2591H14.1772V5.60826C14.1721 5.52776 14.1339 5.45246 14.0709 5.3988C14.0079 5.34515 13.9253 5.3175 13.841 5.3219H11.6501V1.77047C11.6451 1.68998 11.6069 1.61467 11.5439 1.56102C11.4809 1.50736 11.3982 1.47971 11.314 1.48412H10.5981V0.454171C10.593 0.373676 10.5548 0.298372 10.4918 0.244714C10.4288 0.191057 10.3462 0.16341 10.2619 0.167814H4.98019C4.89593 0.16341 4.81328 0.191057 4.75029 0.244714C4.6873 0.298372 4.64909 0.373676 4.64402 0.454171V1.48412H3.92813C3.84387 1.47971 3.76122 1.50736 3.69823 1.56102C3.63524 1.61467 3.59703 1.68998 3.59196 1.77047V7.28276H1.74849C1.66423 7.27836 1.58158 7.306 1.51859 7.35966C1.4556 7.41332 1.41739 7.48862 1.41232 7.56912V14.2591H0.51166C0.469328 14.2543 0.42641 14.2581 0.385734 14.2703C0.345059 14.2825 0.307549 14.3028 0.275676 14.3298C0.243803 14.3569 0.218291 14.3901 0.20082 14.4272C0.183349 14.4644 0.174316 14.5047 0.174316 14.5454C0.174316 14.5862 0.183349 14.6264 0.20082 14.6636C0.218291 14.7008 0.243803 14.734 0.275676 14.761C0.307549 14.7881 0.345059 14.8084 0.385734 14.8206C0.42641 14.8328 0.469328 14.8366 0.51166 14.8318H14.4898C14.5321 14.8366 14.5751 14.8328 14.6157 14.8206C14.6564 14.8084 14.6939 14.7881 14.7258 14.761C14.7577 14.734 14.7832 14.7008 14.8007 14.6636C14.8181 14.6264 14.8272 14.5862 14.8272 14.5454C14.8272 14.5047 14.8181 14.4644 14.8007 14.4272C14.7832 14.3901 14.7577 14.3569 14.7258 14.3298C14.6939 14.3028 14.6564 14.2825 14.6157 14.2703C14.5751 14.2581 14.5321 14.2543 14.4898 14.2591ZM5.31635 0.740528H9.92609V1.48412H5.31635V0.740528ZM2.0843 7.85547H3.59196V14.2591H2.0843V7.85547ZM4.26429 2.05683H10.9771V14.2591H9.30504V12.3694C9.29997 12.2889 9.26176 12.2136 9.19877 12.1599C9.13578 12.1063 9.05313 12.0786 8.96887 12.083H6.27322C6.18896 12.0786 6.10631 12.1063 6.04332 12.1599C5.98033 12.2136 5.94212 12.2889 5.93705 12.3694V14.2591H4.26429V2.05683ZM6.60938 14.2591V12.6561H8.63306V14.2594L6.60938 14.2591ZM11.6501 14.2591V5.89462H13.5034V14.2591H11.6501Z"/>
</mask>
<path d="M14.4898 14.2591H14.1772V5.60826C14.1721 5.52776 14.1339 5.45246 14.0709 5.3988C14.0079 5.34515 13.9253 5.3175 13.841 5.3219H11.6501V1.77047C11.6451 1.68998 11.6069 1.61467 11.5439 1.56102C11.4809 1.50736 11.3982 1.47971 11.314 1.48412H10.5981V0.454171C10.593 0.373676 10.5548 0.298372 10.4918 0.244714C10.4288 0.191057 10.3462 0.16341 10.2619 0.167814H4.98019C4.89593 0.16341 4.81328 0.191057 4.75029 0.244714C4.6873 0.298372 4.64909 0.373676 4.64402 0.454171V1.48412H3.92813C3.84387 1.47971 3.76122 1.50736 3.69823 1.56102C3.63524 1.61467 3.59703 1.68998 3.59196 1.77047V7.28276H1.74849C1.66423 7.27836 1.58158 7.306 1.51859 7.35966C1.4556 7.41332 1.41739 7.48862 1.41232 7.56912V14.2591H0.51166C0.469328 14.2543 0.42641 14.2581 0.385734 14.2703C0.345059 14.2825 0.307549 14.3028 0.275676 14.3298C0.243803 14.3569 0.218291 14.3901 0.20082 14.4272C0.183349 14.4644 0.174316 14.5047 0.174316 14.5454C0.174316 14.5862 0.183349 14.6264 0.20082 14.6636C0.218291 14.7008 0.243803 14.734 0.275676 14.761C0.307549 14.7881 0.345059 14.8084 0.385734 14.8206C0.42641 14.8328 0.469328 14.8366 0.51166 14.8318H14.4898C14.5321 14.8366 14.5751 14.8328 14.6157 14.8206C14.6564 14.8084 14.6939 14.7881 14.7258 14.761C14.7577 14.734 14.7832 14.7008 14.8007 14.6636C14.8181 14.6264 14.8272 14.5862 14.8272 14.5454C14.8272 14.5047 14.8181 14.4644 14.8007 14.4272C14.7832 14.3901 14.7577 14.3569 14.7258 14.3298C14.6939 14.3028 14.6564 14.2825 14.6157 14.2703C14.5751 14.2581 14.5321 14.2543 14.4898 14.2591ZM5.31635 0.740528H9.92609V1.48412H5.31635V0.740528ZM2.0843 7.85547H3.59196V14.2591H2.0843V7.85547ZM4.26429 2.05683H10.9771V14.2591H9.30504V12.3694C9.29997 12.2889 9.26176 12.2136 9.19877 12.1599C9.13578 12.1063 9.05313 12.0786 8.96887 12.083H6.27322C6.18896 12.0786 6.10631 12.1063 6.04332 12.1599C5.98033 12.2136 5.94212 12.2889 5.93705 12.3694V14.2591H4.26429V2.05683ZM6.60938 14.2591V12.6561H8.63306V14.2594L6.60938 14.2591ZM11.6501 14.2591V5.89462H13.5034V14.2591H11.6501Z" fill="#7E7E7E"/>
<path d="M14.1772 14.2591H13.3871V15.0492H14.1772V14.2591ZM14.1772 5.60826H14.9673V5.58339L14.9657 5.55857L14.1772 5.60826ZM13.841 5.3219V6.112H13.8616L13.8823 6.11092L13.841 5.3219ZM11.6501 5.3219H10.86V6.112H11.6501V5.3219ZM11.6501 1.77047H12.4402V1.7456L12.4387 1.72078L11.6501 1.77047ZM11.314 1.48412V2.27422H11.3346L11.3552 2.27314L11.314 1.48412ZM10.5981 1.48412H9.80797V2.27422H10.5981V1.48412ZM10.5981 0.454171H11.3882V0.429302L11.3866 0.404482L10.5981 0.454171ZM10.2619 0.167814V0.957913H10.2825L10.3031 0.956836L10.2619 0.167814ZM4.98019 0.167814L4.93894 0.956836L4.95955 0.957913H4.98019V0.167814ZM4.64402 0.454171L3.85548 0.404482L3.85392 0.429302V0.454171H4.64402ZM4.64402 1.48412V2.27422H5.43412V1.48412H4.64402ZM3.92813 1.48412L3.88688 2.27314L3.90749 2.27422H3.92813V1.48412ZM3.59196 1.77047L2.80343 1.72078L2.80186 1.7456V1.77047H3.59196ZM3.59196 7.28276V8.07286H4.38206V7.28276H3.59196ZM1.74849 7.28276L1.70724 8.07178L1.72785 8.07286H1.74849V7.28276ZM1.41232 7.56912L0.623785 7.51943L0.622221 7.54425V7.56912H1.41232ZM1.41232 14.2591V15.0492H2.20242V14.2591H1.41232ZM0.51166 14.2591L0.422516 15.0441L0.466945 15.0492H0.51166V14.2591ZM0.174316 14.5454H-0.615783H0.174316ZM0.51166 14.8318V14.0417H0.466945L0.422516 14.0467L0.51166 14.8318ZM14.4898 14.8318L14.579 14.0467L14.5345 14.0417H14.4898V14.8318ZM5.31635 0.740528V-0.049571H4.52625V0.740528H5.31635ZM9.92609 0.740528H10.7162V-0.049571H9.92609V0.740528ZM9.92609 1.48412V2.27422H10.7162V1.48412H9.92609ZM5.31635 1.48412H4.52625V2.27422H5.31635V1.48412ZM2.0843 7.85547V7.06537H1.2942V7.85547H2.0843ZM3.59196 7.85547H4.38206V7.06537H3.59196V7.85547ZM3.59196 14.2591V15.0492H4.38206V14.2591H3.59196ZM2.0843 14.2591H1.2942V15.0492H2.0843V14.2591ZM4.26429 2.05683V1.26673H3.4742V2.05683H4.26429ZM10.9771 2.05683H11.7672V1.26673H10.9771V2.05683ZM10.9771 14.2591V15.0492H11.7672V14.2591H10.9771ZM9.30504 14.2591H8.51494V15.0492H9.30504V14.2591ZM9.30504 12.3694H10.0951V12.3445L10.0936 12.3197L9.30504 12.3694ZM8.96887 12.083V12.8731H8.98951L9.01012 12.872L8.96887 12.083ZM6.27322 12.083L6.23197 12.872L6.25258 12.8731H6.27322V12.083ZM5.93705 12.3694L5.14851 12.3197L5.14695 12.3445V12.3694H5.93705ZM5.93705 14.2591V15.0492H6.72715V14.2591H5.93705ZM4.26429 14.2591H3.4742V15.0492H4.26429V14.2591ZM6.60938 14.2591H5.81928V15.049L6.60925 15.0492L6.60938 14.2591ZM6.60938 12.6561V11.866H5.81928V12.6561H6.60938ZM8.63306 12.6561H9.42316V11.866H8.63306V12.6561ZM8.63306 14.2594L8.63293 15.0495L9.42316 15.0496V14.2594H8.63306ZM11.6501 14.2591H10.86V15.0492H11.6501V14.2591ZM11.6501 5.89462V5.10452H10.86V5.89462H11.6501ZM13.5034 5.89462H14.2935V5.10452H13.5034V5.89462ZM13.5034 14.2591V15.0492H14.2935V14.2591H13.5034ZM14.4898 13.469H14.1772V15.0492H14.4898V13.469ZM14.9673 14.2591V5.60826H13.3871V14.2591H14.9673ZM14.9657 5.55857C14.9468 5.25815 14.8045 4.98583 14.5833 4.79734L13.5586 6.00027C13.4633 5.91909 13.3974 5.79738 13.3886 5.65795L14.9657 5.55857ZM14.5833 4.79734C14.3632 4.60987 14.0813 4.51816 13.7998 4.53288L13.8823 6.11092C13.7692 6.11684 13.6527 6.08042 13.5586 6.00027L14.5833 4.79734ZM13.841 4.5318H11.6501V6.112H13.841V4.5318ZM12.4402 5.3219V1.77047H10.86V5.3219H12.4402ZM12.4387 1.72078C12.4197 1.42037 12.2775 1.14804 12.0562 0.959552L11.0315 2.16248C10.9362 2.08131 10.8704 1.95959 10.8616 1.82016L12.4387 1.72078ZM12.0562 0.959552C11.8361 0.772081 11.5543 0.680376 11.2727 0.695094L11.3552 2.27314C11.2421 2.27905 11.1256 2.24264 11.0315 2.16248L12.0562 0.959552ZM11.314 0.694017H10.5981V2.27422H11.314V0.694017ZM11.3882 1.48412V0.454171H9.80797V1.48412H11.3882ZM11.3866 0.404482C11.3677 0.104065 11.2254 -0.168262 11.0041 -0.35675L9.97946 0.846179C9.88417 0.765005 9.81832 0.643287 9.80954 0.503861L11.3866 0.404482ZM11.0041 -0.35675C10.7841 -0.544222 10.5022 -0.635926 10.2207 -0.621208L10.3031 0.956836C10.1901 0.962746 10.0736 0.926337 9.97946 0.846179L11.0041 -0.35675ZM10.2619 -0.622285H4.98019V0.957913H10.2619V-0.622285ZM5.02143 -0.621208C4.73986 -0.635926 4.45803 -0.544224 4.23794 -0.35675L5.26263 0.846179C5.16853 0.926338 5.05201 0.962746 4.93894 0.956836L5.02143 -0.621208ZM4.23794 -0.35675C4.01666 -0.168256 3.87441 0.104073 3.85548 0.404482L5.43255 0.503861C5.42377 0.643278 5.35793 0.765 5.26263 0.846179L4.23794 -0.35675ZM3.85392 0.454171V1.48412H5.43412V0.454171H3.85392ZM4.64402 0.694017H3.92813V2.27422H4.64402V0.694017ZM3.96937 0.695094C3.6878 0.680376 3.40597 0.772079 3.18588 0.959552L4.21057 2.16248C4.11647 2.24264 3.99995 2.27905 3.88688 2.27314L3.96937 0.695094ZM3.18588 0.959552C2.9646 1.14805 2.82236 1.42037 2.80343 1.72078L4.3805 1.82016C4.37171 1.95958 4.30587 2.0813 4.21057 2.16248L3.18588 0.959552ZM2.80186 1.77047V7.28276H4.38206V1.77047H2.80186ZM3.59196 6.49266H1.74849V8.07286H3.59196V6.49266ZM1.78973 6.49374C1.50816 6.47902 1.22633 6.57072 1.00624 6.7582L2.03093 7.96112C1.93683 8.04128 1.82031 8.07769 1.70724 8.07178L1.78973 6.49374ZM1.00624 6.7582C0.784971 6.94668 0.642716 7.21901 0.623785 7.51943L2.20086 7.61881C2.19207 7.75823 2.12623 7.87995 2.03093 7.96112L1.00624 6.7582ZM0.622221 7.56912V14.2591H2.20242V7.56912H0.622221ZM1.41232 13.469H0.51166V15.0492H1.41232V13.469ZM0.600804 13.474C0.452649 13.4572 0.302198 13.4705 0.158823 13.5135L0.612646 15.0271C0.550621 15.0457 0.486006 15.0513 0.422516 15.0441L0.600804 13.474ZM0.158823 13.5135C0.0153946 13.5565 -0.1193 13.6287 -0.23563 13.7275L0.786983 14.9322C0.734398 14.9768 0.674723 15.0085 0.612646 15.0271L0.158823 13.5135ZM-0.23563 13.7275C-0.352065 13.8263 -0.447762 13.9498 -0.514204 14.0911L0.915844 14.7634C0.884344 14.8304 0.839672 14.8874 0.786983 14.9322L-0.23563 13.7275ZM-0.514204 14.0911C-0.580711 14.2325 -0.615783 14.3875 -0.615783 14.5454H0.964415C0.964415 14.6218 0.947409 14.6962 0.915844 14.7634L-0.514204 14.0911ZM-0.615783 14.5454C-0.615783 14.7033 -0.580712 14.8583 -0.514204 14.9997L0.915844 14.3274C0.947411 14.3946 0.964415 14.469 0.964415 14.5454H-0.615783ZM-0.514204 14.9997C-0.447758 15.1411 -0.352057 15.2645 -0.23563 15.3634L0.786983 14.1587C0.839664 14.2034 0.88434 14.2604 0.915844 14.3274L-0.514204 14.9997ZM-0.23563 15.3634C-0.1193 15.4621 0.0153946 15.5344 0.158823 15.5774L0.612646 14.0637C0.674723 14.0824 0.734398 14.114 0.786983 14.1587L-0.23563 15.3634ZM0.158823 15.5774C0.302198 15.6204 0.452649 15.6336 0.600804 15.6168L0.422516 14.0467C0.486006 14.0395 0.550621 14.0452 0.612646 14.0637L0.158823 15.5774ZM0.51166 15.6219H14.4898V14.0417H0.51166V15.6219ZM14.4007 15.6168C14.5488 15.6336 14.6993 15.6204 14.8426 15.5774L14.3888 14.0637C14.4508 14.0452 14.5155 14.0395 14.579 14.0467L14.4007 15.6168ZM14.8426 15.5774C14.9861 15.5344 15.1208 15.4621 15.2371 15.3634L14.2145 14.1587C14.2671 14.114 14.3268 14.0824 14.3888 14.0637L14.8426 15.5774ZM15.2371 15.3634C15.3535 15.2645 15.4492 15.1411 15.5157 14.9997L14.0856 14.3274C14.1171 14.2604 14.1618 14.2034 14.2145 14.1587L15.2371 15.3634ZM15.5157 14.9997C15.5822 14.8583 15.6173 14.7033 15.6173 14.5454H14.0371C14.0371 14.469 14.0541 14.3946 14.0856 14.3274L15.5157 14.9997ZM15.6173 14.5454C15.6173 14.3875 15.5822 14.2325 15.5157 14.0911L14.0856 14.7634C14.0541 14.6963 14.0371 14.6218 14.0371 14.5454H15.6173ZM15.5157 14.0911C15.4492 13.9498 15.3535 13.8263 15.2371 13.7275L14.2145 14.9322C14.1618 14.8874 14.1171 14.8304 14.0856 14.7634L15.5157 14.0911ZM15.2371 13.7275C15.1208 13.6287 14.9861 13.5565 14.8426 13.5135L14.3888 15.0271C14.3268 15.0085 14.2671 14.9768 14.2145 14.9322L15.2371 13.7275ZM14.8426 13.5135C14.6993 13.4705 14.5488 13.4572 14.4007 13.474L14.579 15.0441C14.5155 15.0513 14.4508 15.0457 14.3888 15.0271L14.8426 13.5135ZM5.31635 1.53063H9.92609V-0.049571H5.31635V1.53063ZM9.13599 0.740528V1.48412H10.7162V0.740528H9.13599ZM9.92609 0.694017H5.31635V2.27422H9.92609V0.694017ZM6.10645 1.48412V0.740528H4.52625V1.48412H6.10645ZM2.0843 8.64557H3.59196V7.06537H2.0843V8.64557ZM2.80186 7.85547V14.2591H4.38206V7.85547H2.80186ZM3.59196 13.469H2.0843V15.0492H3.59196V13.469ZM2.8744 14.2591V7.85547H1.2942V14.2591H2.8744ZM4.26429 2.84693H10.9771V1.26673H4.26429V2.84693ZM10.187 2.05683V14.2591H11.7672V2.05683H10.187ZM10.9771 13.469H9.30504V15.0492H10.9771V13.469ZM10.0951 14.2591V12.3694H8.51494V14.2591H10.0951ZM10.0936 12.3197C10.0746 12.0193 9.93239 11.7469 9.71112 11.5584L8.68643 12.7614C8.59113 12.6802 8.52529 12.5585 8.51651 12.4191L10.0936 12.3197ZM9.71112 11.5584C9.49103 11.371 9.2092 11.2793 8.92763 11.294L9.01012 12.872C8.89706 12.8779 8.78053 12.8415 8.68643 12.7614L9.71112 11.5584ZM8.96887 11.2929H6.27322V12.8731H8.96887V11.2929ZM6.31446 11.294C6.03289 11.2793 5.75106 11.371 5.53097 11.5584L6.55566 12.7614C6.46156 12.8415 6.34503 12.8779 6.23197 12.872L6.31446 11.294ZM5.53097 11.5584C5.30969 11.7469 5.16744 12.0193 5.14851 12.3197L6.72558 12.4191C6.7168 12.5585 6.65096 12.6802 6.55566 12.7614L5.53097 11.5584ZM5.14695 12.3694V14.2591H6.72715V12.3694H5.14695ZM5.93705 13.469H4.26429V15.0492H5.93705V13.469ZM5.05439 14.2591V2.05683H3.4742V14.2591H5.05439ZM7.39948 14.2591V12.6561H5.81928V14.2591H7.39948ZM6.60938 13.4462H8.63306V11.866H6.60938V13.4462ZM7.84296 12.6561V14.2594H9.42316V12.6561H7.84296ZM8.63319 13.4693L6.60952 13.469L6.60925 15.0492L8.63293 15.0495L8.63319 13.4693ZM12.4402 14.2591V5.89462H10.86V14.2591H12.4402ZM11.6501 6.68472H13.5034V5.10452H11.6501V6.68472ZM12.7133 5.89462V14.2591H14.2935V5.89462H12.7133ZM13.5034 13.469H11.6501V15.0492H13.5034V13.469Z" fill="white" mask="url(#path-1-outside-1_544_1634)"/>
<path d="M9.8211 8.73743H8.41602V10.7517H9.8211V8.73743Z" fill="#7E7E7E"/>
<path d="M9.8211 6.05176H8.41602V7.73029H9.8211V6.05176Z" fill="#7E7E7E"/>
<path d="M9.8211 3.03027H8.41602V4.7088H9.8211V3.03027Z" fill="#7E7E7E"/>
<path d="M7.01104 3.03027H5.60596V4.7088H7.01104V3.03027Z" fill="#7E7E7E"/>
<path d="M7.01104 6.05176H5.60596V7.73029H7.01104V6.05176Z" fill="#7E7E7E"/>
<path d="M7.01104 8.73743H5.60596V10.7517H7.01104V8.73743Z" fill="#7E7E7E"/>
<path d="M9.11852 12.4302H6.30835V14.4444H9.11852V12.4302Z" fill="#7E7E7E"/>
</g>
<defs>
<clipPath id="clip0_544_1634">
<rect width="15" height="15" fill="white"/>
</clipPath>
</defs>
</svg>
