<svg width="31" height="37" viewBox="0 0 31 37" fill="none" xmlns="http://www.w3.org/2000/svg">
<path d="M29.7432 5.48335H28.8458V3.3586C28.8458 3.3586 29.7411 3.3586 29.7432 3.3586C30.4037 3.3586 30.4052 2.33321 29.7432 2.33321H16.1407V1.5127C16.1407 1.22955 15.9112 1 15.628 1H2.92281C2.63967 1 2.41012 1.22955 2.41012 1.5127V5.48335H1.5127C1.22955 5.48335 1 5.7129 1 5.99604V8.53184C1 8.81498 1.22955 9.04453 1.5127 9.04453H2.41005V35.4873C2.41005 35.7705 2.6396 36 2.92274 36H28.3332C28.6164 36 28.8458 35.7705 28.8458 35.4873V9.0446H29.7433C30.0265 9.0446 30.256 8.81505 30.256 8.5319V5.99604C30.2559 5.7129 30.0264 5.48335 29.7432 5.48335ZM26.3049 3.3586H27.8205V5.48335H26.3049V3.3586ZM23.7638 3.3586H25.2795V5.48335H23.7638V3.3586ZM21.2228 3.3586H22.7384V5.48335H21.2228V3.3586ZM18.6817 3.3586H20.1974V5.48335H18.6817V3.3586ZM16.1407 3.3586H17.6563V5.48335H16.1407V3.3586ZM3.43551 2.02539H15.1153V5.48335H10.624V3.34192C10.624 3.05878 10.3946 2.82923 10.1113 2.82923H5.27478C4.99164 2.82923 4.76209 3.05878 4.76209 3.34192V5.48342H3.43551V2.02539ZM9.59858 3.85462V5.48335H5.78741V3.85462H9.59858ZM18.5053 34.9746H12.7507V29.1978H18.5054L18.5053 34.9746ZM29.2306 8.01921C29.2306 8.01921 8.09811 8.01921 8.07774 8.01921C7.41794 8.01921 7.41568 9.0446 8.07774 9.0446H27.8205V34.9746H19.5307V28.6851C19.5307 28.402 19.3012 28.1724 19.018 28.1724H12.2379C11.9547 28.1724 11.7252 28.402 11.7252 28.6851V34.9746H3.43551V9.0446C3.43551 9.0446 9.01937 9.0446 9.02696 9.0446C9.68595 9.0446 9.68923 8.01921 9.02696 8.01921H2.02539V6.50874H29.2306V8.01921Z" fill="#37474F"/>
<rect x="11" y="26.0001" width="9" height="9" fill="#37474F"/>
</svg>
