<svg width="15" height="13" viewBox="0 0 15 13" fill="none" xmlns="http://www.w3.org/2000/svg">
<path d="M14.8385 6.24409C13.915 5.31325 12.9911 4.38335 12.0667 3.45345L10.8642 2.24369C10.6342 2.01226 10.3756 1.8884 10.073 1.86512C9.69546 1.83578 9.31237 1.79992 8.94131 1.76593C8.6179 1.73613 8.28292 1.70493 7.9535 1.67792C7.83968 1.66861 7.79434 1.64579 7.74807 1.52985C7.42929 0.729861 6.7487 0.17015 5.927 0.0323175C5.10344 -0.105515 4.27711 0.202745 3.71635 0.857449C3.64787 0.937541 3.58773 0.946854 3.46604 0.949182C3.42764 0.950113 3.3897 0.950579 3.3513 0.951045C3.08573 0.955235 2.8109 0.958961 2.5518 1.02927C1.60842 1.28492 0.881558 1.99503 0.608119 2.92866C0.330516 3.87626 0.563702 4.88625 1.2318 5.62989C1.26881 5.67134 1.2938 5.76912 1.28223 5.8278C1.24799 6.00009 1.2008 6.17424 1.155 6.3428C1.12492 6.45316 1.09439 6.56725 1.06663 6.68087C1.04905 6.75351 1.02776 6.82894 1.00694 6.90158C0.904229 7.26107 0.789024 7.66572 1.09161 8.05034C1.07033 8.06524 1.04951 8.07968 1.02961 8.09411C0.934303 8.16117 0.851947 8.21891 0.767278 8.27432C0.571105 8.40237 0.522987 8.58165 0.628014 8.79305C0.671968 8.88106 0.712683 8.97279 0.756174 9.06965C0.76589 9.09107 0.775606 9.11295 0.785785 9.13531C0.751084 9.15812 0.717309 9.18001 0.683997 9.20236L0.538255 9.29828C0.254637 9.48408 0.223176 9.59863 0.36938 9.91154C0.406394 9.99117 0.442945 10.0703 0.482272 10.1565L0.484585 10.1616C0.465153 10.1728 0.445721 10.1839 0.426751 10.1947C0.351799 10.2375 0.280084 10.2789 0.20837 10.319C-0.00307095 10.4359 -0.0558156 10.6189 0.0603151 10.834C0.266667 11.2158 0.472093 11.5977 0.676594 11.9795C0.733966 12.0866 0.806605 12.1532 0.892662 12.1769C0.917184 12.1839 0.942631 12.1872 0.96854 12.1872C1.03609 12.1872 1.10827 12.1639 1.18738 12.1164C1.31925 12.0372 1.45527 11.959 1.58667 11.8836C1.80459 11.7583 2.02991 11.6284 2.24598 11.4901C2.36303 11.4156 2.4676 11.2801 2.51294 11.1451C2.60362 10.8726 2.68089 10.5923 2.75631 10.3209C2.78545 10.2147 2.81506 10.109 2.84514 10.0033C2.91963 9.74158 2.99366 9.48035 3.06815 9.21866C3.30503 8.38375 3.55025 7.5209 3.79639 6.67341C3.8223 6.58494 3.88152 6.50811 3.90928 6.49973C4.74487 6.23757 5.36439 5.67879 5.75026 4.83876C5.76275 4.81128 5.79745 4.78148 5.81688 4.77589C5.98252 4.72933 6.15186 4.68975 6.33137 4.64691C6.36376 4.63946 6.39661 4.63154 6.42992 4.62362C6.43686 4.68695 6.4438 4.74982 6.45074 4.81221C6.47619 5.03805 6.50025 5.25085 6.51181 5.46878C6.52801 5.76307 6.6409 6.01219 6.85743 6.23058C7.95951 7.34116 9.41045 8.8033 10.8642 10.264C11.0742 10.475 11.232 10.4731 11.4462 10.2575C12.7139 8.97885 13.8248 7.85663 14.8422 6.82708C15.0537 6.61288 15.0527 6.46061 14.8385 6.24409ZM14.1926 6.54722L13.7263 7.01148C12.8657 7.86827 12.0088 8.72088 11.1413 9.58512C11.1103 9.55718 11.0775 9.52692 11.046 9.49572C10.7295 9.17721 10.4135 8.85918 10.0971 8.54067C9.22955 7.66665 8.33197 6.76329 7.44595 5.87809C7.26042 5.69276 7.17436 5.51115 7.1577 5.27088C7.12717 4.81966 7.08136 4.36239 7.03741 3.92003C7.00502 3.59547 6.97171 3.25974 6.94441 2.93006C6.92591 2.70422 6.96847 2.53751 7.07072 2.43554C7.1577 2.34846 7.29142 2.30469 7.46862 2.30469C7.50332 2.30469 7.53987 2.30655 7.57827 2.30981C8.45087 2.38757 9.23834 2.45882 10.0388 2.5459C10.1498 2.558 10.2775 2.61621 10.3492 2.68745C11.4504 3.78499 12.564 4.90721 13.6411 5.99217L14.1926 6.54722ZM4.07677 3.78545C3.99256 3.83249 3.94445 3.91584 3.94398 4.01316C3.94352 4.13702 4.02033 4.25762 4.14386 4.3284C4.35854 4.4504 4.57877 4.55657 4.81196 4.66926C4.88552 4.70465 4.96001 4.74097 5.03589 4.77775C4.70647 5.37472 4.26369 5.73047 3.68581 5.86365C3.41052 5.92698 3.27311 6.06109 3.19538 6.34094C2.96266 7.17958 2.72114 8.03125 2.48749 8.85498C2.31121 9.47523 2.12938 10.1169 1.95264 10.7479C1.91193 10.8927 1.84715 10.977 1.72825 11.0389C1.56539 11.1241 1.41039 11.2172 1.24568 11.3159C1.20219 11.342 1.15777 11.3686 1.11336 11.3951L0.777919 10.7763C0.78671 10.7707 0.795501 10.7646 0.804292 10.759C0.868141 10.7167 0.928288 10.6771 0.990286 10.6394C1.29149 10.455 1.32526 10.3376 1.17073 10.0117C1.14065 9.9488 1.11151 9.88547 1.08051 9.81748C1.07033 9.79513 1.05969 9.77278 1.04905 9.7495C1.06524 9.73832 1.08189 9.72715 1.09809 9.71597C1.18229 9.65823 1.26141 9.60328 1.34423 9.55299C1.53902 9.43472 1.59222 9.25172 1.49367 9.03705C1.45388 8.94951 1.41224 8.8629 1.36968 8.77256C1.35857 8.74882 1.34701 8.72507 1.33544 8.70085C1.35904 8.68502 1.38217 8.66919 1.40484 8.65382C1.4872 8.59795 1.56492 8.54486 1.64358 8.49411C1.75601 8.4224 1.82633 8.33159 1.84623 8.23195C1.86381 8.14487 1.84207 8.05407 1.78377 7.96932C1.53346 7.60425 1.58019 7.23499 1.72686 6.79262C1.78516 6.61754 1.82911 6.43686 1.87168 6.26178C1.90499 6.12441 1.93969 5.98286 1.9804 5.84689C2.05073 5.6108 1.99984 5.43013 1.81014 5.24247C1.15962 4.60127 0.986122 3.84413 1.2938 2.99292C1.58898 2.17617 2.19555 1.71611 3.09591 1.62577C3.14958 1.62018 3.2051 1.62158 3.26895 1.62298C3.22962 1.82879 3.20093 1.9657 2.99967 2.05789C2.64804 2.21947 2.4602 2.67022 2.57216 3.08419C2.6758 3.47068 3.05843 3.77149 3.46188 3.78406C3.86579 3.7971 4.2475 3.51491 4.37103 3.11399C4.49503 2.7112 4.3553 2.31074 4.00644 2.0686C3.98516 2.05417 3.96434 2.04206 3.94398 2.03089C3.87042 1.98944 3.85885 1.98292 3.87782 1.91634C3.888 1.87908 3.91946 1.7664 3.93889 1.7515C3.94861 1.74917 3.98192 1.75243 4.09667 1.80458C4.97297 2.20085 5.48514 3.21038 5.26676 4.08347C5.00628 4.05507 4.77541 3.94704 4.51492 3.79477C4.39463 3.72352 4.19336 3.71933 4.07677 3.78545ZM3.49195 3.1098C3.41839 3.11166 3.34945 3.08465 3.29671 3.03296C3.24489 2.98221 3.21666 2.91516 3.21666 2.84298C3.21666 2.7722 3.24304 2.70748 3.29162 2.65998C3.34159 2.61062 3.41052 2.58408 3.48594 2.58408C3.48871 2.58408 3.49149 2.58408 3.49427 2.58408C3.64093 2.58827 3.75151 2.70049 3.75151 2.84577C3.75105 2.985 3.63261 3.10607 3.49195 3.1098ZM6.28603 3.03995L6.30546 3.2467C6.31749 3.37801 6.32998 3.50979 6.34201 3.6411C6.35451 3.78033 6.36283 3.87253 6.34294 3.90373C6.32351 3.93493 6.23421 3.96613 6.11068 4.00897C6.0695 4.0234 6.02647 4.03551 5.97882 4.04855C6.06672 2.72191 5.51661 1.74777 4.34281 1.14848C4.76985 0.742899 5.25011 0.590632 5.80716 0.681899C6.39244 0.778289 6.82319 1.10937 7.08877 1.66768C6.42529 2.00248 6.22172 2.35824 6.28603 3.03995Z" fill="#37474F"/>
<path d="M10.7399 4.47492C10.67 4.40135 10.5937 4.36363 10.5127 4.36317C10.3873 4.36224 10.2865 4.44792 10.212 4.52335C10.0723 4.66491 9.93252 4.80553 9.79233 4.94616C9.58783 5.15151 9.37639 5.36385 9.1705 5.57479C9.12609 5.61996 9.09416 5.67071 9.05761 5.72892C9.04049 5.75593 9.02245 5.7848 9.0007 5.81599L8.96045 5.87467L9.00625 5.92915C9.02337 5.94964 9.04049 5.97478 9.05715 5.99946C9.10434 6.06931 9.15338 6.14148 9.23574 6.15732C9.2598 6.16197 9.28617 6.1643 9.31439 6.1643C9.41387 6.1643 9.53046 6.13403 9.60218 6.06558C9.8622 5.81832 10.1185 5.55896 10.366 5.30844C10.472 5.20134 10.578 5.09377 10.6848 4.98714C10.9139 4.75757 10.8412 4.58156 10.7399 4.47492Z" fill="#37474F"/>
<path d="M11.6521 5.81243C11.2852 6.15748 10.9053 6.53838 10.457 7.01008C10.3733 7.09856 10.3797 7.26898 10.4103 7.35653C10.4366 7.4315 10.5028 7.47573 10.5616 7.51438C10.5815 7.52742 10.6 7.53999 10.6143 7.5521L10.6583 7.58842L10.7101 7.5656C10.7328 7.55583 10.7536 7.54791 10.773 7.54139C10.8193 7.52509 10.8669 7.50786 10.9044 7.47061L11.0353 7.3407C11.386 6.99379 11.7488 6.63477 12.0907 6.26691C12.1809 6.17005 12.1587 5.92558 12.0764 5.8399C11.9949 5.75236 11.7479 5.72256 11.6521 5.81243Z" fill="#37474F"/>
</svg>
