<svg width="18" height="14" viewBox="0 0 18 14" fill="none" xmlns="http://www.w3.org/2000/svg">
<path d="M17.7797 11.1753L14.4239 7.89287C14.319 7.79032 14.181 7.73344 14.0378 7.73367H13.4284V5.90797C13.489 5.93112 13.5529 5.94311 13.6173 5.94344H13.6557C13.731 5.93807 13.8045 5.9168 13.8719 5.88091C13.9392 5.84502 13.999 5.79522 14.0477 5.7345L14.4228 5.27191C14.5199 5.15077 14.5686 4.99469 14.5586 4.83651C14.5487 4.67833 14.4808 4.53039 14.3694 4.42382L13.4281 3.53719V1.46748C13.4281 1.30921 13.3684 1.15743 13.2621 1.04552C13.1559 0.933609 13.0118 0.870738 12.8615 0.870738H12.012C11.8618 0.870738 11.7177 0.933609 11.6114 1.04552C11.5052 1.15743 11.4455 1.30921 11.4455 1.46748V1.66601L9.83877 0.151407C9.73524 0.0539014 9.60122 0 9.46234 0C9.32346 0 9.18945 0.0539014 9.08592 0.151407L4.55454 4.42151C4.44303 4.52802 4.37513 4.67597 4.36516 4.83418C4.35519 4.99239 4.40393 5.1485 4.5011 5.26959L4.87625 5.73219C4.92506 5.79306 4.98503 5.84294 5.05257 5.87884C5.12011 5.91474 5.19383 5.93593 5.26933 5.94112C5.34622 5.94616 5.42328 5.93475 5.49588 5.90759V7.73174H4.92932C4.78684 7.7313 4.64951 7.78778 4.54502 7.88979L1.14603 11.1742C1.0401 11.2796 0.977458 11.4244 0.971451 11.5778C0.967885 11.5893 0.965073 11.601 0.963034 11.6129V13.4031C0.961333 13.482 0.974825 13.5604 1.00269 13.6336C1.03056 13.7068 1.07223 13.7733 1.12519 13.8291C1.17814 13.8848 1.24128 13.9287 1.31078 13.9581C1.38029 13.9874 1.45473 14.0016 1.52959 13.9999H17.3962C17.4711 14.0016 17.5455 13.9874 17.615 13.9581C17.6845 13.9287 17.7476 13.8848 17.8006 13.8291C17.8535 13.7733 17.8952 13.7068 17.9231 13.6336C17.951 13.5604 17.9644 13.482 17.9627 13.4031V11.6129C17.9612 11.5999 17.9587 11.587 17.9554 11.5743C17.9484 11.4227 17.8859 11.2797 17.7812 11.1753H17.7797ZM10.0287 6.54018H8.89413C8.66874 6.54018 8.45258 6.63448 8.29321 6.80235C8.13383 6.97022 8.0443 7.1979 8.0443 7.43529V9.82265H6.34572C6.27058 9.82265 6.19853 9.79122 6.14541 9.73526C6.09228 9.6793 6.06244 9.60341 6.06244 9.52428V5.43343L9.46216 2.22883L12.8619 5.43343V9.52428C12.8619 9.60341 12.832 9.6793 12.7789 9.73526C12.7258 9.79122 12.6537 9.82265 12.5786 9.82265H10.8789V7.43529C10.8789 7.31771 10.8569 7.20128 10.8142 7.09266C10.7715 6.98403 10.7088 6.88534 10.6299 6.80222C10.5509 6.71909 10.4572 6.65317 10.354 6.6082C10.2509 6.56324 10.1404 6.54013 10.0287 6.54018ZM12.0117 1.46748H12.8615V3.00136L12.0117 2.2003V1.46748ZM4.93261 4.86907L9.46216 0.596268L13.995 4.88449L13.6202 5.34708L9.65101 1.6078C9.59905 1.55876 9.53174 1.53165 9.46198 1.53165C9.39221 1.53165 9.3249 1.55876 9.27294 1.6078L5.30666 5.34708L4.93261 4.86907ZM4.92932 8.33041H5.49588V9.52543C5.49588 9.64298 5.51786 9.75938 5.56057 9.86798C5.60327 9.97658 5.66587 10.0753 5.74479 10.1584C5.8237 10.2415 5.91739 10.3074 6.0205 10.3524C6.1236 10.3974 6.23411 10.4205 6.34572 10.4205H12.5786C12.804 10.4205 13.0202 10.3262 13.1795 10.1584C13.3389 9.99051 13.4284 9.76283 13.4284 9.52543V8.33041H14.0378L17.3962 11.6129H1.52959L4.92932 8.33041ZM1.52959 13.4035V12.2085H17.3962V13.4035H1.52959Z" fill="#707070"/>
</svg>
