<svg width="16" height="15" viewBox="0 0 16 15" fill="none" xmlns="http://www.w3.org/2000/svg">
<g clip-path="url(#clip0_547_2799)">
<path d="M4.38041 0.234375H12.5454C12.9289 0.234375 13.2967 0.407226 13.5679 0.714903C13.8391 1.02258 13.9915 1.43988 13.9915 1.875V6.27234H2.93433V1.875C2.93433 1.43988 3.08668 1.02258 3.35787 0.714903C3.62907 0.407226 3.99688 0.234375 4.38041 0.234375V0.234375Z" stroke="#737678" stroke-width="0.699387"/>
<path d="M10.5567 4.00403H11.6632C11.8802 4.00403 12.0951 4.05253 12.2956 4.14675C12.4961 4.24098 12.6783 4.37909 12.8318 4.5532C12.9853 4.72731 13.107 4.93401 13.19 5.1615C13.2731 5.38898 13.3158 5.6328 13.3158 5.87903V6.50668H8.90405V5.87903C8.90405 5.38175 9.07817 4.90483 9.38811 4.5532C9.69804 4.20157 10.1184 4.00403 10.5567 4.00403V4.00403Z" fill="#737678"/>
<path d="M10.5567 4.2384H11.6631C12.0467 4.2384 12.4145 4.41125 12.6857 4.71893C12.9569 5.02661 13.1092 5.44391 13.1092 5.87903V6.27231H9.1106V5.87903C9.1106 5.44391 9.26295 5.02661 9.53414 4.71893C9.80534 4.41125 10.1732 4.2384 10.5567 4.2384V4.2384Z" stroke="#737678" stroke-width="0.699387"/>
<path d="M5.26277 4.00403H6.36923C6.58626 4.00403 6.80117 4.05253 7.00168 4.14675C7.20219 4.24098 7.38438 4.37909 7.53784 4.5532C7.69131 4.72731 7.81304 4.93401 7.89609 5.1615C7.97915 5.38898 8.0219 5.6328 8.0219 5.87903V6.50668H3.61011V5.87903C3.61011 5.38175 3.78423 4.90483 4.09416 4.5532C4.4041 4.20157 4.82446 4.00403 5.26277 4.00403V4.00403Z" fill="#737678"/>
<path d="M5.26273 4.2384H6.36919C6.75272 4.2384 7.12053 4.41125 7.39173 4.71893C7.66292 5.02661 7.81527 5.44391 7.81527 5.87903V6.27231H3.81665V5.87903C3.81665 5.44391 3.969 5.02661 4.2402 4.71893C4.51139 4.41125 4.87921 4.2384 5.26273 4.2384V4.2384Z" stroke="#737678" stroke-width="0.699387"/>
<path d="M2.61552 6.24048H14.3081C14.6916 6.24048 15.0595 6.41333 15.3307 6.72101C15.6018 7.02868 15.7542 7.44598 15.7542 7.8811V12.7791H1.16943V7.8811C1.16943 7.44598 1.32179 7.02868 1.59298 6.72101C1.86417 6.41333 2.23199 6.24048 2.61552 6.24048V6.24048Z" stroke="#737678" stroke-width="0.699387"/>
<path d="M2.94824 12.7635V14.7656" stroke="#737678" stroke-width="0.699387" stroke-linecap="round"/>
<path d="M13.9778 12.7635V14.7656" stroke="#737678" stroke-width="0.699387" stroke-linecap="round"/>
</g>
<defs>
<clipPath id="clip0_547_2799">
<rect width="15" height="15" fill="white" transform="translate(0.962891)"/>
</clipPath>
</defs>
</svg>
