<svg width="15" height="15" viewBox="0 0 15 15" fill="none" xmlns="http://www.w3.org/2000/svg">
<g clip-path="url(#clip0_1292_6061)">
<path d="M14.8169 13.9335L11.0862 10.2029C12.1029 8.95954 12.6027 7.37297 12.4824 5.77139C12.3621 4.16981 11.6307 2.67575 10.4397 1.59824C9.24871 0.520732 7.68911 -0.0577793 6.08351 -0.0176344C4.47792 0.0225105 2.94918 0.67824 1.81349 1.81392C0.677813 2.9496 0.0220832 4.47835 -0.0180617 6.08394C-0.0582065 7.68953 0.520305 9.24914 1.59781 10.4402C2.67532 11.6312 4.16938 12.3625 5.77096 12.4828C7.37254 12.6032 8.95911 12.1033 10.2025 11.0867L13.9331 14.8173C14.051 14.9311 14.2089 14.9941 14.3727 14.9927C14.5366 14.9913 14.6934 14.9256 14.8092 14.8097C14.9251 14.6938 14.9909 14.537 14.9923 14.3732C14.9937 14.2093 14.9307 14.0514 14.8169 13.9335ZM6.24999 11.2504C5.26108 11.2504 4.29438 10.9572 3.47213 10.4078C2.64989 9.85835 2.00903 9.07746 1.63059 8.16383C1.25215 7.2502 1.15313 6.24487 1.34606 5.27496C1.53899 4.30506 2.01519 3.41414 2.71445 2.71488C3.41371 2.01562 4.30463 1.53941 5.27453 1.34649C6.24444 1.15356 7.24977 1.25258 8.1634 1.63102C9.07703 2.00945 9.85793 2.65032 10.4073 3.47256C10.9567 4.29481 11.25 5.26151 11.25 6.25041C11.2485 7.57604 10.7212 8.84694 9.78388 9.7843C8.84652 10.7217 7.57561 11.2489 6.24999 11.2504Z" fill="#737678"/>
</g>
<defs>
<clipPath id="clip0_1292_6061">
<rect width="15" height="15" fill="white"/>
</clipPath>
</defs>
</svg>
