<svg width="15" height="15" viewBox="0 0 15 15" fill="none" xmlns="http://www.w3.org/2000/svg">
<path d="M4.16979 5.52783C4.23362 5.53708 4.29792 5.54171 4.36597 5.54726C4.37161 5.54772 4.37724 5.54819 4.38334 5.54865C4.38334 5.63146 4.38334 5.7138 4.38381 5.79615C4.38428 6.07279 4.38475 6.33464 4.3824 6.60157C4.38146 6.71075 4.37912 7.00081 4.69404 7.01006C4.79589 7.0133 4.87849 6.98554 4.9381 6.92864C5.0315 6.83889 5.04183 6.69964 5.04183 6.60249C5.04136 6.50719 5.04042 6.41143 5.03995 6.31567C5.03713 6.00109 5.03432 5.67587 5.0484 5.35805C5.05309 5.2535 5.10519 5.12905 5.17277 5.06151C6.08892 4.14275 7.02667 3.21428 7.9339 2.3168L8.4943 1.76212C8.5234 1.73344 8.55437 1.70614 8.58723 1.67746C8.59145 1.68116 8.5952 1.6844 8.59896 1.68764L9.11289 2.19282C10.0825 3.14581 11.0851 4.13165 12.065 5.10685C12.1092 5.1508 12.142 5.2535 12.143 5.35111C12.1491 5.96223 12.1486 6.58445 12.1481 7.18585C12.1481 7.39126 12.1476 7.59712 12.1476 7.80252C12.1476 7.8201 12.1458 7.83907 12.1439 7.85804C12.1378 7.92327 12.1312 7.99729 12.1735 8.05835C12.2241 8.13191 12.2899 8.18927 12.3537 8.24479C12.3781 8.2656 12.402 8.28689 12.425 8.30863L12.494 8.37386L12.5588 8.30447C12.5794 8.28272 12.6006 8.26144 12.6222 8.24016C12.6785 8.18419 12.7371 8.12636 12.7827 8.05558C12.8202 7.99775 12.8136 7.92836 12.8085 7.87238C12.8071 7.85573 12.8052 7.83953 12.8052 7.82381C12.8052 7.31169 12.8052 6.79957 12.8052 6.28791V5.60555C12.8582 5.58658 12.9108 5.56947 12.962 5.55281C13.114 5.50331 13.2576 5.45705 13.3764 5.36869C13.5571 5.23407 13.665 5.04625 13.6796 4.83899C13.6969 4.59704 13.5909 4.35 13.3815 4.14275C12.0223 2.79885 10.7847 1.57938 9.59772 0.414974C9.49165 0.310885 9.3668 0.221137 9.23586 0.15452C8.66983 -0.132766 8.03481 -0.0147985 7.53825 0.469563C6.64275 1.34299 5.73504 2.23353 4.85737 3.09446C4.52508 3.4206 4.19279 3.74675 3.86003 4.07243C3.84641 4.08585 3.83233 4.09927 3.81825 4.11268C3.77554 4.15385 3.73096 4.19642 3.69059 4.2436C3.49206 4.4763 3.43996 4.74693 3.54087 5.02681C3.64272 5.3104 3.86049 5.48342 4.16979 5.52783ZM4.30167 4.54801C4.85831 4.00212 5.41495 3.45623 5.97206 2.91034L7.08252 1.8218C7.39275 1.51786 7.70299 1.21438 8.01181 0.90905C8.18876 0.734181 8.37086 0.652297 8.58347 0.652297C8.58535 0.652297 8.58723 0.652297 8.5891 0.652297L8.64589 0.65276L8.66091 0.62454C8.6994 0.642119 8.73788 0.658311 8.77543 0.674503C8.91248 0.733255 9.04155 0.788307 9.13166 0.875742C10.1013 1.81532 11.0785 2.77988 12.0233 3.71252C12.3227 4.00813 12.6217 4.30328 12.9216 4.59843C12.9892 4.66505 13.0234 4.72195 13.0225 4.76821C13.022 4.80013 13.0037 4.83205 12.9666 4.86582C12.8939 4.9329 12.8348 4.94031 12.6935 4.80013C11.5215 3.64127 10.3285 2.4653 9.1739 1.32818L9.06032 1.21623C8.86648 1.02517 8.72897 0.947448 8.58535 0.947448C8.58488 0.947448 8.58441 0.947448 8.58347 0.947448C8.43985 0.94791 8.30187 1.02702 8.10662 1.21947L4.5753 4.70622L4.50959 4.77145C4.3641 4.91579 4.30778 4.95465 4.19513 4.86166C4.15712 4.8302 4.15149 4.8043 4.15102 4.78764C4.15055 4.7548 4.16791 4.67893 4.30167 4.54801Z" fill="#37474F"/>
<path d="M14.999 9.21582C14.9835 8.9623 14.8281 8.73146 14.5611 8.5663C13.9706 8.20083 13.3563 8.19713 12.7339 8.55659C12.121 8.91049 11.4198 9.18713 10.5928 9.40133C10.6092 9.02152 10.5008 8.69953 10.2793 8.46823C10.0531 8.23229 9.72358 8.10738 9.32699 8.106C9.22983 8.10553 9.13268 8.10461 9.03553 8.10322C8.79147 8.09998 8.53897 8.09674 8.28975 8.1097C7.9138 8.12959 7.59371 8.01717 7.28536 7.75626C6.69774 7.25987 6.0355 7.06279 5.31741 7.17058C4.21071 7.33666 3.46774 8.0366 2.88717 8.69953C2.79799 8.80131 2.82287 9.04557 2.90735 9.14087C2.95757 9.19731 3.02046 9.2297 3.08992 9.2334C3.18238 9.23895 3.28282 9.19454 3.38654 9.10201C3.48041 9.01828 3.57381 8.93177 3.66439 8.84804C3.91925 8.61256 4.18255 8.36876 4.46931 8.17493C5.35355 7.57722 6.15472 7.62626 6.99108 8.32851C7.34355 8.62459 7.72935 8.7643 8.17006 8.75597C8.58496 8.74811 8.99376 8.75135 9.411 8.75551C9.74705 8.75875 9.96576 8.9623 9.96858 9.27411C9.97045 9.45129 9.91507 9.60072 9.80947 9.70665C9.70997 9.80658 9.57104 9.86024 9.40865 9.86117C8.97686 9.86441 8.53756 9.86348 8.11233 9.86256L7.9077 9.86209C7.90629 9.86209 7.90536 9.86209 7.90395 9.86209C7.78708 9.86209 7.6566 9.87412 7.57119 9.96109C7.51486 10.018 7.48811 10.0971 7.49093 10.197C7.49703 10.4061 7.63408 10.5121 7.89878 10.5121C7.89972 10.5121 7.90066 10.5121 7.9016 10.5121C8.00955 10.5116 8.1175 10.5111 8.22498 10.5107C8.56431 10.5088 8.91538 10.507 9.25987 10.5139C9.56541 10.5204 9.9559 10.4885 10.2797 10.1836C10.3098 10.1549 10.3778 10.1392 10.4379 10.1253L10.4726 10.117C11.5601 9.85053 12.412 9.52346 13.1531 9.08767C13.4863 8.89152 13.8444 8.9017 14.1879 9.11728C14.2809 9.17557 14.333 9.2334 14.3349 9.28012C14.3367 9.32685 14.2903 9.38837 14.203 9.45406L14.0279 9.58637C13.6778 9.85145 13.3154 10.1253 12.9423 10.3663C12.2186 10.8341 11.4292 11.3064 10.5604 11.5955C9.8672 11.8259 9.13221 11.8402 8.42163 11.8541C8.31603 11.856 8.20996 11.8583 8.10436 11.8611C7.40457 11.8791 6.6372 11.9013 5.75859 11.9291C5.64407 11.9328 5.51594 11.948 5.43475 12.0364C5.38265 12.0933 5.35918 12.1701 5.36575 12.2645C5.38359 12.5309 5.59526 12.5587 5.72855 12.5587C5.74874 12.5587 5.76704 12.5582 5.78253 12.5573C6.6203 12.5282 7.47262 12.5046 8.29678 12.4819C8.592 12.4736 8.88722 12.4657 9.18243 12.4569C10.0075 12.4333 10.7674 12.2548 11.4395 11.9258C12.6114 11.3526 13.6872 10.6782 14.6362 9.91992C14.8863 9.72192 15.0145 9.47164 14.999 9.21582Z" fill="#37474F"/>
<path d="M2.89841 9.59898C2.67171 9.30337 2.3535 9.13359 1.92452 9.08039L1.90012 9.07715L1.87712 9.0864C1.81329 9.11231 1.74524 9.13636 1.67953 9.15949C1.52652 9.21362 1.36835 9.2696 1.22896 9.35935C1.01072 9.49998 0.800922 9.65773 0.597697 9.80994C0.463466 9.91032 0.32501 10.0144 0.186085 10.112C0.0767291 10.1888 0.0171228 10.2707 0.00304258 10.3623C-0.0105683 10.453 0.0213469 10.5469 0.101604 10.6491C0.226918 10.8097 0.352232 10.9753 0.473322 11.1349C0.531989 11.2126 0.591126 11.2908 0.650263 11.368L1.30781 12.2304C1.94611 13.0677 2.60647 13.9332 3.2537 14.7863C3.30438 14.8534 3.41609 15 3.58458 15C3.6517 15 3.72773 14.9769 3.81268 14.9163C3.91594 14.8428 4.02013 14.7701 4.12432 14.6975C4.38011 14.5189 4.64482 14.3339 4.89498 14.1373C5.40703 13.7334 5.50841 13.0473 5.13059 12.5417C4.36134 11.5119 3.57519 10.4826 2.89841 9.59898ZM2.3718 9.93716C3.2781 11.1191 3.96662 12.0273 4.60446 12.8817C4.79407 13.1357 4.74948 13.4086 4.48525 13.6113C4.29657 13.7561 4.09945 13.8986 3.90936 14.0364C3.83239 14.0924 3.75495 14.1479 3.67798 14.2043C3.66953 14.2108 3.66014 14.2164 3.64935 14.2228L0.782148 10.4608C0.865691 10.4025 0.947825 10.3443 1.02996 10.286C1.28434 10.1051 1.52464 9.93484 1.78091 9.78218C1.96254 9.67393 2.22209 9.74193 2.3718 9.93716Z" fill="#37474F"/>
<path d="M9.71192 7.58731C9.71239 7.71592 9.74665 7.81353 9.8133 7.87737C9.86868 7.93057 9.94284 7.9574 10.0339 7.9574C10.0381 7.9574 10.0423 7.9574 10.0466 7.9574C10.2432 7.95231 10.3662 7.81399 10.3671 7.59702C10.3676 7.50126 10.3685 7.4055 10.3695 7.30974C10.3728 7.00811 10.376 6.69677 10.3596 6.38959C10.3324 5.88626 9.94518 5.52635 9.41718 5.51432C9.22428 5.51016 9.02903 5.51108 8.83989 5.51201C8.75024 5.51247 8.66107 5.51293 8.57096 5.51293C8.52261 5.51247 8.4738 5.51386 8.42546 5.51478C8.32408 5.51663 8.22787 5.51848 8.13212 5.51154C7.62758 5.475 7.27417 5.56336 7.05311 5.78171C6.82501 6.00701 6.73771 6.35906 6.77807 6.88922C6.77854 6.89708 6.77854 6.90495 6.77854 6.91281L6.77901 6.93085C6.78512 7.13996 6.89963 7.26162 7.093 7.2644C7.09535 7.2644 7.0977 7.2644 7.10004 7.2644C7.29904 7.2644 7.42342 7.13811 7.43281 6.92577C7.43656 6.84666 7.43609 6.76709 7.43562 6.69029C7.43515 6.62969 7.43515 6.56862 7.43656 6.50802C7.44313 6.25821 7.54075 6.1643 7.79561 6.16245C8.29686 6.15921 8.81736 6.15921 9.34208 6.16245C9.6082 6.1643 9.70394 6.25867 9.7077 6.52421C9.71098 6.74812 9.71098 6.97619 9.71051 7.19686C9.71192 7.32732 9.71145 7.45731 9.71192 7.58731Z" fill="#37474F"/>
<path d="M10.9551 1.57413C11.1574 1.58477 11.2761 1.46912 11.309 1.22856C11.3343 1.04212 11.3395 1.00881 11.7112 1.02223C11.8665 1.02778 11.9158 1.08468 11.9139 1.25585C11.9092 1.67082 11.9116 2.08995 11.9149 2.48086C11.9167 2.70338 12.0355 2.83847 12.2321 2.84263C12.2354 2.84263 12.2392 2.84263 12.2425 2.84263C12.3349 2.84263 12.411 2.81487 12.4678 2.76028C12.5349 2.69598 12.5691 2.59976 12.5701 2.47485C12.571 2.31802 12.5705 2.16166 12.5705 2.00483V1.80498L12.5673 1.72171C12.5677 1.67868 12.5682 1.63566 12.5687 1.59217C12.5705 1.4335 12.5729 1.26973 12.5644 1.10781C12.5461 0.753448 12.3213 0.48698 11.9787 0.412036C11.7769 0.368087 11.5633 0.371788 11.4202 0.378728C10.9785 0.399545 10.6552 0.737719 10.6514 1.18276C10.6491 1.43165 10.7514 1.56303 10.9551 1.57413Z" fill="#37474F"/>
</svg>
