<svg width="17" height="17" viewBox="0 0 17 17" fill="none" xmlns="http://www.w3.org/2000/svg">
<path d="M13.8123 16.2765L13.8126 16.2765C14.1344 16.2761 14.4429 16.1481 14.6704 15.9206C14.8979 15.6931 15.0259 15.3846 15.0263 15.0628V15.0625V6.28306C15.1978 6.39744 15.3813 6.49311 15.5736 6.56829L15.6122 6.58336L15.6535 6.58647C15.6693 6.58766 15.6851 6.58781 15.7008 6.58694C15.8234 6.58192 15.9415 6.53895 16.0387 6.4639C16.1369 6.38801 16.2089 6.28316 16.2443 6.16416C16.2797 6.04516 16.2769 5.91804 16.2362 5.80075C16.1954 5.68347 16.1189 5.58195 16.0173 5.51054L16.0174 5.5104L16.0093 5.50511L8.82123 0.819271C8.82117 0.819234 8.82111 0.819196 8.82106 0.819159C8.72536 0.756715 8.61357 0.723465 8.4993 0.723465C8.38503 0.723465 8.27322 0.756719 8.17753 0.819169C8.17748 0.819203 8.17742 0.819237 8.17737 0.819271L0.991611 5.50492C0.99152 5.50498 0.991381 5.50507 0.991291 5.50513C0.860378 5.59034 0.768688 5.724 0.736286 5.87681C0.703861 6.02973 0.733511 6.18927 0.818713 6.32032C0.903915 6.45138 1.03769 6.54322 1.19061 6.57565L1.24797 6.30513L1.19061 6.57565C1.34353 6.60807 1.50306 6.57842 1.63412 6.49322L1.63452 6.49296L1.97265 6.2723L1.97265 15.0625L1.97265 15.0628C1.97306 15.3846 2.10106 15.6931 2.32858 15.9206C2.55611 16.1481 2.86458 16.2761 3.18635 16.2765H3.18669H13.8123ZM10.6856 15.0883H10.571L10.5608 15.0986H9.08748V15.0883H8.81095H8.18568H7.90914V15.0986H6.58799V15.0883H6.31145H5.68658H5.41005V15.0986H5.33824V10.0266H11.6608V15.0986H11.5889V15.0883H11.3124H10.6856ZM4.74907 8.84828L4.74872 8.84828C4.5926 8.84848 4.44293 8.91064 4.3326 9.02111L4.52826 9.21652L4.3326 9.02111C4.22227 9.13158 4.1603 9.28132 4.1603 9.43745V15.0986L3.18704 15.0986C3.18697 15.0986 3.1869 15.0986 3.18682 15.0986C3.17734 15.0985 3.16825 15.0947 3.16155 15.088C3.15479 15.0812 3.15099 15.0721 3.15099 15.0625V5.50366L8.49872 2.0157L13.8472 5.50367L13.8472 15.0621C13.8472 15.0622 13.8472 15.0623 13.8472 15.0624C13.8471 15.0719 13.8433 15.0811 13.8365 15.0879C13.8297 15.0947 13.8206 15.0985 13.811 15.0986C13.8109 15.0986 13.8108 15.0986 13.8108 15.0986L12.8383 15.0986V9.43745L12.8383 9.4371C12.8381 9.281 12.776 9.13134 12.6656 9.02096C12.5552 8.91058 12.4056 8.84848 12.2495 8.84828H12.2491L4.74907 8.84828Z" fill="#7E7E7E" stroke="white" stroke-width="0.553069"/>
<path d="M9.88525 11.6578H7.12207V14.0263H9.88525V11.6578Z" fill="#7E7E7E"/>
<path d="M9.09591 13.6315H5.93799V15.6052H9.09591V13.6315Z" fill="#7E7E7E"/>
<path d="M11.0696 13.6315H8.70117V15.6052H11.0696V13.6315Z" fill="#7E7E7E"/>
</svg>
