<svg width="15" height="15" viewBox="0 0 15 15" fill="none" xmlns="http://www.w3.org/2000/svg">
<g clip-path="url(#clip0_1292_6751)">
<path d="M14.2831 0.717471C13.8582 0.293219 13.2823 0.0549316 12.6819 0.0549316C12.0814 0.0549316 11.5055 0.293219 11.0806 0.717471L0.915634 10.8825C0.624541 11.1719 0.393736 11.5162 0.236571 11.8955C0.0794057 12.2747 -0.000998735 12.6813 9.36327e-06 13.0918V14.375C9.36327e-06 14.5407 0.0658574 14.6997 0.183068 14.8169C0.300278 14.9341 0.459249 15 0.625009 15H1.90813C2.31861 15.0011 2.72524 14.9209 3.10448 14.7638C3.48372 14.6067 3.82804 14.376 4.11751 14.085L14.2831 3.91935C14.7072 3.49447 14.9454 2.9187 14.9454 2.31841C14.9454 1.71812 14.7072 1.14235 14.2831 0.717471V0.717471ZM3.23376 13.2012C2.88126 13.5514 2.40499 13.7485 1.90813 13.75H1.25001V13.0918C1.24938 12.8455 1.29761 12.6015 1.39191 12.374C1.48621 12.1465 1.62471 11.9399 1.79938 11.7662L9.51376 4.05185L10.9513 5.48935L3.23376 13.2012ZM13.3988 3.0356L11.8325 4.60247L10.395 3.1681L11.9619 1.60122C12.0563 1.50704 12.1683 1.43237 12.2915 1.38148C12.4148 1.33058 12.5468 1.30446 12.6802 1.30461C12.8135 1.30476 12.9455 1.33116 13.0687 1.38232C13.1918 1.43348 13.3036 1.5084 13.3978 1.60278C13.492 1.69717 13.5667 1.80919 13.6176 1.93243C13.6685 2.05567 13.6946 2.18774 13.6944 2.32108C13.6943 2.45442 13.6679 2.58642 13.6167 2.70955C13.5656 2.83269 13.4906 2.94454 13.3963 3.03872L13.3988 3.0356Z" fill="#E85451"/>
</g>
<defs>
<clipPath id="clip0_1292_6751">
<rect width="15" height="15" fill="#E85451"/>
</clipPath>
</defs>
</svg>
